<?xml version="1.0" encoding="UTF-8"?>
<svg version="1.1" viewBox="0 0 2048 679" width="389" height="129" xmlns="http://www.w3.org/2000/svg">
<path transform="translate(0)" d="m0 0h2048v679h-2048z" fill="#FCFCFC"/>
<path transform="translate(503,119)" d="m0 0h14l19 9 24 14 26 15 48 28 23 13 24 14 19 12 7 7 4 7 1 4v209l-4 8-8 9-17 11-21 12-19 11-26 15-24 14-52 30-16 9-7 2h-14l-9-4-8-4-28-17-13-8-7-4-7-5v-2l18-7 9-5h6l16 9 15 9 12 7 6-1 22-12 48-28 28-16 18-10 24-14 21-12 6-4v-196l-5-4-28-16-25-14-17-10-26-15-24-14-23-13-21-12-5 1-24 14-7 4-18 10-26 15-23 13-28 16-24 14-11 6-6 4-1 2v193l4 4 20 12 18 10 11 5 9 3h6l11-4 4-5 4-10 1-6 1-189h29l1 1v196l-2 18-5 10-9 10-12 8-10 2h-18l-13-2-13-5-10-5-9-5-14-8-15-9-9-7-5-6-4-9v-214l6-8 8-7 21-13 78-45 23-13 27-16 22-12z" fill="#2B137A"/>
<path transform="translate(1197,309)" d="m0 0h11l1 8 7-1 11-5 4-1h11l13 3 14 7 12 11 7 10 6 13 2 9v20l-4 15-4 10-7 11-10 9-13 8-12 4-5 1h-22l-13-4 2 40 3 16 8 3 9 3 1 1-1 8-2 3h-72l-10-1-1-10 5-2 9-3 3-2 3-11 2-26 1-20v-95l-1-12-8-3-7-3-2-4v-7l6-1z" fill="#9E91DD"/>
<path transform="translate(801,249)" d="m0 0h142l14 1 9 44v9l-1 5-10-5-10-11-7-8-8-8-12-6-15-2h-31l-1 41v20l9 1 18-3 2-4 9-19 5-3 7 1 1 2v76l-5 2-7-1-11-22-6-4-14-4-7-1-1 10v28l1 25 4 6 8 2h19l15-2 17-5 13-7 9-9 7-10 4-4h7l2 3v12l-9 38-2 3h-96l-68-1-5-2-1-2v-8l21-6h2l2-13 1-14v-123l-3-3-11-4-6-3-2-2v-9z" fill="#9E91DD"/>
<path transform="translate(542,256)" d="m0 0h28l19 3 15 5 11 6 10 9 7 11 5 14 1 5v8l-2 1-9 1h-17l-4-8-5-12-8-7-10-4-13-2h-28l-16 4-9 6-3 5v13l3 5 7 4 14 3 48 7 21 5 16 6 11 7 6 7 4 10 2 12-1 11-4 12-6 10-11 11-14 8-15 5-17 3h-29l-26-4-16-6-11-6-8-7-7-11-5-12-3-14 1-4 5-2h25l1 1 3 14 5 9 5 4 10 4 16 3h32l16-2 13-5 4-5 3-8v-11l-5-6-11-5-19-4-39-5-21-5-16-6-8-6-7-8-5-12-1-14 2-12 8-16 7-7 13-8 15-5z" fill="#7667C3"/>
<path transform="translate(1498,309)" d="m0 0h18l13 4 10 6 10 9 8 11 6 12 1 3v12l-4 6-8 2-23 1h-35l-10-1 1 14 4 13 6 10 8 6 6 3h10l10-3 14-8 11-7 5 1 3 5-1 6-7 9-13 9-11 5-12 3-8 1h-13l-17-3-12-5-8-6-10-11-8-14-3-9-1-5v-17l4-17 8-16 9-10 8-7 15-8z" fill="#9E91DD"/>
<path transform="translate(1083,312)" d="m0 0 46 1 1 1v7l-13 7-9 7-10 9-11 12-5 7 1 6 9 11 13 17 11 13 9 9 6 4h3v2l5 1 4 3 1 4-3 5-3 1h-78l-1-4v-9l5-2 8-1-3-7-12-16-4-2-12 14-6 10 16 2 2 3v11l-1 1h-56l-5-2-1-2v-6l3-2 8-2 13-8 11-11 9-11 8-10 1-4-10-13-16-21-9-10-11-9-8-6 1-7 2-2h72l1 3-1 8-9 4h-2l5 8 11 14 3 2 13-18 3-7-10-1-4-4v-9z" fill="#9D90DC"/>
<path transform="translate(1624,308)" d="m0 0h12l12 3 14 5 6-5 5 1 4 8 2 14v20l-2 5-6-1-5-4-10-16-7-7-12-5h-10l-7 4-3 3 1 5 19 10 16 8 15 9 12 11 5 8 3 10-1 9-4 9-7 11-9 9-10 6-8 3-15 1-15-3-16-6-5 2-4 3h-8l-1-1-1-15v-30l2-6 4-2 7 1 3 4 5 13 6 11 9 8 11 4h7l6-4 4-5v-8l-5-5-13-8-21-11-11-8-8-9-4-9-1-12 3-12 8-11 9-8 9-5z" fill="#9E91DD"/>
<path transform="translate(1746,309)" d="m0 0h20l19 5h8l4-3 4 1 2 8 3 30-1 7-5 2-6-4-4-5-8-13-4-5-9-5-4-1h-8l-9 3-5 4 2 4 10 6 25 13 13 8 10 8 6 8 3 7 1 11-3 12-8 12-11 11-11 6-11 3h-12l-16-4-11-4-11 3h-6l-1-1-2-23v-26l4-3h6l5 6 10 19 8 9 10 5 10 1 7-3 4-4 1-8-5-6-18-10-17-10-11-8-7-7-4-8-2-8 1-11 4-9 4-6 9-9 13-7z" fill="#9D90DC"/>
<path transform="translate(1364,308)" d="m0 0 4 1 2 15 9-6 10-7 8-2h11l9 4 7 6 4 8 1 9-3 9-5 6-9 4h-6l-8-4-7-7-7-9-2-1-3 10-5 16-1 7v36l2 16 1 2 15 5 4 4-1 5-5 5-74-1-2-1v-11l6-3 12-2-1-87-1-3-10-4-6-2-2-3v-6l4-4z" fill="#9E91DD"/>
<path transform="translate(1223,331)" d="m0 0h8l6 4 5 6 4 9 2 10 1 11v17l-2 14-4 11-7 8-4 2h-9l-9-4-5-8-3-12-1-11v-12l2-19 5-15 6-8z" fill="#FDFDFD"/>
<path transform="translate(1503,325)" d="m0 0 6 1 6 4 6 8 2 8-1 9-5 2h-21l-10-1-1-1 1-9 6-12 7-7z" fill="#FDFDFD"/>
</svg>
