<?xml version="1.0" encoding="UTF-8"?>
<svg version="1.1" viewBox="0 0 2048 1942" width="156" height="148" xmlns="http://www.w3.org/2000/svg">
<path transform="translate(0)" d="m0 0h2048v1942h-2048z" fill="#FBFBFB"/>
<path transform="translate(337)" d="m0 0h1370l-1 22-8 107-16 181-6 65-8 92-5 56-5 62-11 113-8 94-4 45-6 74-5 53-6 70-8 83-8 96-7 79-5 68-4 44-1 7-6 2-52 13-106 30-95 28-44 12-50 14-65 18-60 17-48 15-21 6-4 1h-16l-26-6-37-10-34-10-52-15-62-18-47-14-99-28-67-19-41-12-53-15-37-11-2-2v-14l-14-151-6-69-8-93-6-73-10-107-10-110-18-204-7-73-6-73-7-81-5-58-8-82-8-99-11-118z" fill="#D8BB42"/>
<path transform="translate(1119,120)" d="m0 0h463l1 1-1 26-6 84-5 62-5 60-5 67-6 65-7 84-8 76-8 96-3 33-6 80-5 52-4 37-5 58-4 43-4 40-3 38-5 74-5 57-3 36-4 37-1 2-54 17-53 15-54 16-55 16-28 8-35 9-22 6-42 11-64 16-31 7-16 3-1-1-1-33-1-53-1-118-1-69-1-138v-321l-1-93v-115l1-59 1-105 1-66 1-158 5-1 31-1z" fill="#FDD84B"/>
<path transform="translate(1079,299)" d="m0 0h171l207 1 41 1 16 1 1 1-1 13-3 34-8 104-1 10-1 1h-289l-2-1 2 87 2 126v34l36-4 69-10 58-7 55-7 26-3 18-4h7v18l-3 50-5 67-5 73-8 94-5 68-6 59v24l-2 2-31 6-54 15-94 24-31 9-26 7-21 6-61 15-33 6-13 2h-8v-120l1-41 16-4 47-9 106-29 40-12 36-10 20-6 1-9 6-112 1-16-12 3-41 8-60 10-46 9-56 10-48 7h-10l-1-3-1-202v-337l1-57z" fill="#FCFCFC"/>
<path transform="translate(946,299)" d="m0 0h19l2 2 1 49 1 117 1 259v507l-5-1-18-8-19-7-46-14-41-12-192-54-62-17-15-5-1-3-1-20-1-46v-84l1-9 8 1 23 7 65 17 40 10 54 15 55 16 22 7-1-6-2-107v-403l1-167 1-29 1-11 2-2 22-1z" fill="#FCFCFC"/>
<path transform="translate(1453,1730)" d="m0 0h10l1 12 4 4v2l16-8 11-8 7-2h17l8 2 10 5 10 9 9 12 6 14 2 10v17l-3 15-6 15-9 14-7 8-11 9-15 8-17 6-14 1-18-3 1 46 2 15 3 1-2 8h-41l-3-6 1-4 3-2h4l1 4 2-2h5v-180h-2-12l-3-2-1-9 5-6h5l2 2 6-2 8-4z" fill="#090708"/>
<path transform="translate(578,1730)" d="m0 0h18l8 3 8 7 6 8 5 14 2 12v61l1 12 3 5 22 6 1 2-14 8-8 4-5 3h-10l-5-2-5-10-2-2-10 2-11 6-6 5-3 1h-20l-9-4-5-5-6-10-4-8-2-9 1-10 4-9 6-8 21-10 27-10 14-7 2-3-1-11-4-13-6-9-9-4-8-1-7 3-8 7-6 7-7 12-4 5-4-1-9-5-2-3 1-6 7-8 14-10 19-11 6-3z" fill="#090708"/>
<path transform="translate(861,1730)" d="m0 0h15l9 3 7 9 5 11 3 13 1 76 2 8 6 3 6 1h8l2 1-1 6-13 10-10 5h-8l-6-4-6-10-2-3-5 1-16 9-10 6h-18l-10-5-8-9-5-9-2-8v-14l3-10 5-6 17-9 26-10 10-3 9-5 2-4v-10l-2-12-5-9-14-7-7-1-8 3-5 5-7 9-6 15-2 3h-6l-8-6-2-3v-7l4-6 6-5 19-12 8-5 7-3z" fill="#090708"/>
<path transform="translate(1e3 1663)" d="m0 0h29l15 3 4 4 2 8 3 18 3 12v8l-5-2-6-8-10-18-5-6v-2l-4-2-7-3-5-1h-13l-10 2-10 5-6 8-3 7v18l2 9 7 11 8 8 15 9 19 8 12 8 13 12 7 7 6 10 2 6 1 14v10l-4 16-6 9-12 12-13 8-13 4-14 3h-13l-14-3-14-5-9-8-5-12-4-20-1-13 1-2 6 1 4 6 7 18 6 9 7 7 12 6 14 3h11l8-3 11-8 5-7 3-12v-16l-4-12-9-10-10-7-22-13-20-14-15-14-8-18-1-4v-13l4-15 6-15 5-6 11-7 12-5z" fill="#090708"/>
<path transform="translate(1491,1748)" d="m0 0h12l12 4 10 7 6 8 5 10 3 12v23l-2 11-5 13-6 9-10 9-12 6-4 1h-15l-9-4-9-7-3-4-1-27v-54l2-6 9-4 13-6z" fill="#FBFAF7"/>
<path transform="translate(430,1666)" d="m0 0h81l7 1 1 2-3 3-13 4-12 3-1 3-1 32-1 122-1 21-3 14-6 15-7 11-12 13-10 7-13 4-6 1v-3l11-13 7-7 7-11 3-7 2-10 2-27 1-26v-131l-2-6-28-8-3-5z" fill="#090708"/>
<path transform="translate(701,1731)" d="m0 0h5v7l-7 7-5 3h-3l4 10 13 28 5 15 6 26 3 4v2l5-3 6-9 9-19 9-29 6-15 1-9-5-5-10-6-2-3v-3l19 1 36 1-2 4-5 4-8 4-7 10-12 25-15 36-13 30-7 16-3 10-3 3-9-1-3-7-4-17-12-35-20-50-8-15-8-6-8-7-1-3 1-2h18l6 1h8z" fill="#090708"/>
<path transform="translate(1616,1692)" d="m0 0h6l4 4v9l-1 8v19l33 1 5 2 1 7-5 4h-34v66l2 35 3 7 2 2h19l13-1-1 7-3 5-9 4-12 4h-19l-8-3-5-6-4-11-2-15-1-45-1-49-10-1-9-7 1-2 16-5 3-1 4-21 7-11z" fill="#090708"/>
<path transform="translate(1157,1730)" d="m0 0h16l11 1 14 4 4 4v10l-1 7-6 4-9-3-13-8-11-4h-13l-9 5-10 9-8 13-4 13v18l3 16 4 10 6 9 10 9 14 7 5 1h15l12-5 13-9 4-3h4l-1 7-7 10-7 7-13 8-13 5-7 1h-11l-16-5-12-5-11-10-7-10-6-13-3-10-1-13 3-21 6-15 6-10 10-11 13-10 18-11z" fill="#090708"/>
<path transform="translate(1302,1731)" d="m0 0h16l4 3 3 10 1 6v10l-3 2-6-1-9-3-6-1h-8l-11 2-4 5-6 9-2 8v71l3 6 8 5 15 5v3l-5 1-41 1-11 2h-10l-3-1-1-5 5-6 11-4 2-2 1-4 1-53v-39l-2-6-8-4-5-3-2-4 1-5 5-2 4 2h9l7 1 2-4 9-4 4 1 1 3v8l-3 2v6l2 2h8l9-7 7-13 3-2z" fill="#090708"/>
<path transform="translate(1381,1731)" d="m0 0h7l2 4v113l2 10 5 4 11 4 2 4-2 3h-43l-12 1-8-1-2-3 1-5 3-3 18-3v-102l-1-2-19-3-2-2 7-10 4-1h13l11-7z" fill="#090708"/>
<path transform="translate(598,1797)" d="m0 0 3 1 1 3 1 43-6 7-17 6-9 1-10-6-6-7-4-9v-9l4-8 12-10 22-9z" fill="#FAF9F4"/>
<path transform="translate(864,1800)" d="m0 0h13l2 3v41l-5 6-24 8-7-1-7-5-6-10-2-7v-8l3-6 10-11 11-5 10-4z" fill="#FAF9F4"/>
<path transform="translate(1371,1670)" d="m0 0 9 1 7 4 4 5 1 7-9 13-2 1h-14l-5-5-1-3v-11l4-8z" fill="#090708"/>
<path transform="translate(1223,876)" d="m0 0h6v1l-29 6-45 8-27 5-47 7-4-1 1-3h10l48-7 56-10z" fill="#D9BC43"/>
<path transform="translate(1428,1930)" d="m0 0h4l1 4 2-2h4l2 10h-14l-3-6 1-4z" fill="#D7BE56"/>
<path transform="translate(1469,1933)" d="m0 0 10 1 4 3-1 2-7-1h-6l-1 4v-5z" fill="#D9BC43"/>
<path transform="translate(1427,1931)" d="m0 0 4 1-1 4-5 2-1-5z" fill="#090708"/>
</svg>
