<?xml version="1.0" encoding="UTF-8"?>
<svg version="1.1" viewBox="0 0 2048 1927" width="204" height="192" xmlns="http://www.w3.org/2000/svg">
<path transform="translate(0)" d="m0 0h2048v1927h-2048z" fill="#FEFDFD"/>
<path transform="translate(291,649)" d="m0 0h45l17 2 27 5 27 8 28 11 26 13 17 10 14 10 12 9 11 9 16 15 15 16 9 11 13 18 12 19 10 18 10 23 11 33 6 29 3 21 1 9v49l-3 26-5 25-7 24-8 21-12 25-12 21-14 20-11 14-13 15-14 14-8 7-9 7-9 8-15 10-19 11-17 9-27 11-26 8-25 6-28 4-10 1h-37l-27-3-31-6-25-7-26-10-22-11-22-14-17-12-12-11-8-7-7-6v-2l-4-2-14-15-10-12-14-19-13-22-12-23-11-28-9-28-6-22-2-9v-90l5-18 7-25 12-31 10-22 13-23 9-14 8-11 7-9 9-10 7-8 14-14 11-9 18-14 15-10 19-11 22-11 21-8 18-6 24-6 32-5z" fill="#FE733C"/>
<path transform="translate(449,767)" d="m0 0h14l12 2 6 4 1 3 3 1 1 2 7 4 5 4 3 8 2 1 2 9 1 2v14l-6 14-7 11-5 6-6 1h-5l-5 7-6 2h-14l-25-5 4 8v7l-2 8 3 1v9l-1 5h-2l-1 5-11 18-10 14-6 8-3 5-12 14-9 10-7 8-38 38-5-1-3-2v-2h-2l-7-8-7-6v-2l-5-2-4-6-6-3-6-7-1-5-5-1-5-5-7-9-8-10-1-3 8-7 11-11 6-5 20-20 8-7 9-9 11-9 9-8 19-14 17-9h2v-2l12-4h9l8 2 3-3 4 4v2h2l-1-5-5-9-2-5-1-9v-9l5-12 8-12 4-4 7-4 12-6z" fill="#FEB299"/>
<path transform="translate(966,863)" d="m0 0h16l7 1 20 10 7 8 5 5 4 7 3 11 2 7 1 36v60l-1 10-3 8-5 9-9 10-10 7-9 5-12 2-1 1h-19l-15-5v-2l-7-2-5-4-7-8-2-7h-2l-4-11-3-21-1-14v-62l2-21 4-11 7-9 8-8 6-4 11-4h3v-2z" fill="#FEFBFA"/>
<path transform="translate(756,862)" d="m0 0h19l20 2 12 4 7 4 2 3 5 3 3 5 5 5 6 14 3 18v10l-2 12-8 16-7 8-10 7-6 2v2l-16 4-8 1h-20l-15-1-1 77h-23l-1-13v-170l1-10 1-1z" fill="#FE8840"/>
<path transform="translate(1932,862)" d="m0 0h10l4 1 5 5 1 4h2l5 11v2h2l4 7 4 10 1 4h2l3 6v4h2l8 15 11 23 6 12 4 10 4 7v2l3 1 2 8 3 1 6 7 1-7-1-37v-95l24 1v195h-10l-10-2-8-14v-4h-2l-9-19v-2h-2l-12-25-15-29-1-4h-2l-4-9-10-19-6-11-2-2v-3h-2l-1 47-1 95-1 1h-15l-4-1-1-5-1-36v-141l2-13z" fill="#FE6917"/>
<path transform="translate(1500,863)" d="m0 0h9l6 3 3 4v3h2l10 17v4h2l8 14 4 10v2h2l6 10 5 13 2 6h2l3 5 4 1 6-8 7-14h2l1-6 2-4h2l2-7 3-6h2l1-5 3-6h2l1-5 3-6h2l2-7 2-3h2v-3h2l2-5 6-5 5-2h7l1 28 1 6 1 42v33l-1 86h-12l-7-1-1-153h-3l-3 9-9 17-11 23-8 15-10 16-6 9-5-1-9-19-10-19-11-21-3-5v-2h-2l-3-9-3-1-2-5-2-1 1 20v105l-1 24h-10l-11-1-1-1-1-89v-83l1-18 2-3z" fill="#FE6917"/>
<path transform="translate(1786,862)" d="m0 0 4 1 3 5 4 10 8 25 2 4 3 12 2 5 3 11 2 4 2 9 3 8 3 11 2 4 3 12 7 21 3 8 3 9 2 7 3 11 1 7 2 5 1 7h-17l-4-2-10-37-1-5h-71l-4 8-3 13-3 7-3 9-3 7h-17l-1-4 2-8h2l2-16 3-9 5-19 5-13 3-12 1-3h2l4-18 4-10 4-15 1-1 2-10 4-12h2l2-9 6-20h2l2-9 5-6z" fill="#FE6916"/>
<path transform="translate(966,863)" d="m0 0h16l7 1 20 10 7 8 5 5 4 7 3 11 2 7 1 36v60l-1 10-3 8-5 9-9 10-10 7-9 5-12 2-1 1h-19l-15-5v-2l-7-2-5-4-7-8-2-7h-2l-4-11-3-21-1-14v-62l2-21 4-11 7-9 8-8 6-4 11-4h3v-2zm0 18-10 4-12 11-3 8v4h-2l-3 22-1 16v41l2 23 3 11 5 7 3 5 8 6 10 2 1 1h16l4-1v-2l7-1 5-5 8-9v-2h2l3-9 1-10v-41l-1-41-1-14-4-11-2-1-3-5-4-2-1-2-8-4-8-1z" fill="#FE6A18"/>
<path transform="translate(1171,862)" d="m0 0h11l13 2v2l9 1 6 3 5 3v3l3 1 1 9-3 6-9-3-12-5-8-2h-18l-13 3-9 5-7 8-3 7v12l6 11 3 3 4 2v2l4 1 9 5 15 7 7 2v2l6 2 8 4v2l4 1 8 7 1 4 3 1v3l3 1 4 9v3h2l2 9 1 1v18l-5 12-7 11-7 7-12 8-13 4-6 2h-22l-13-4-5-2v-2l-9-3-8-7-2-4-3-2-1-5h-2l-1-7 3-5 6 1v2l6 2 7 4 1 2 4 2v2l6 2 4 2 12 2 2 1h20v-2l7-1 1-3 5-2 5-5 2-5 3-3 2-7v-9l-3-14h-2l-1-5-3-1v-3l-4-2-5-5-12-5-4-2v-2l-9-3-10-5-8-2-9-6-3-4-5-3-1-4-3-1-4-9v-4h-2l-2-11v-8l3-13 1-2h2l1-4 6-7h3l2-4 8-5 6-1v-2l15-5z" fill="#FE6A19"/>
<path transform="translate(299,996)" d="m0 0 4 2 3 3 5 3v3l4 2 7 6 1 6-7 6-12 9-17 12-14 9-15 9-22 13-18 10-16 8-13 7h-2l5 17 3 9v2l3 1-2 5-4 1-10-9-3-3-5-6-7-6v-2l-3-1-3-6 1-5 52-52 5-6 5-4 4-5 6-5 7-8 11-11 9-6 7-2 9-1 1-1 13-1 7-1z" fill="#FEFDFD"/>
<path transform="translate(1311,862)" d="m0 0h103l3 1 1 3v7l-3 9-2 1-13 1-32 1v174l-3 1-4-1-14-1-1-42-1-131-37-1-11-1-2-3v-15l2-2z" fill="#FE6712"/>
<path transform="translate(764,882)" d="m0 0h29l9 3 9 8 3 7 3 12v24l-4 11-8 8-8 5-8 2h-41l-3-2-1-5v-70l5-2z" fill="#FEFDFD"/>
<path transform="translate(395,839)" d="m0 0 5 1 3 5 1 4-14 11-13 13-8 7-28 28-7 8-18 18-8 7-8 8-9 11-6 5-4 1-12-12-6-5-3-6 8-7 11-11 6-5 20-20 8-7 9-9 11-9 9-8 19-14 19-10z" fill="#FEFDFD"/>
<path transform="translate(1500,863)" d="m0 0h9l6 3v3l-5-3v2h-2l-1 2-2-1 1 5v11l8 16 4 7v127l-1 24h-10l-11-1-1-1-1-89v-83l1-18 2-3z" fill="#FE8A43"/>
<path transform="translate(416,856)" d="m0 0h9l4 8v9l-2 5-11 9-17 14-10 9-8 7-7 7-8 7-12 11-11 9-13 11-11 9-12 11-4 2-7-1-7-6-1-4 10-8 8-7 34-34 7-8 11-11 7-8 15-14 14-11 12-10z" fill="#FEFEFE"/>
<path transform="translate(449,767)" d="m0 0h14l12 2 6 4 2 3v4l-12 9-17 16-7 10-2 4v6l6 8 12 13 5 4 5 2-2 5-6 3h-14l-12-3-11-7-7-8-8-16-2-10v-8l4-13 7-10 7-8 9-6z" fill="#FEFEFE"/>
<path transform="translate(1784,887)" d="m0 0 2 4 5 16 2 9 3 8 10 38 1 10h2l6 22v4h-42l-20 1v-7l10-32 10-34 3-9 6-20z" fill="#FEFAF9"/>
<path transform="translate(428,889)" d="m0 0 2 1-1 8-8 14-13 19-9 11-7 7-7 8-12 13-10 10h-2l-2 4-9 9-9 11-7 6-6 1-6-4-12-12 1-4 12-10 11-7 14-12 13-12 11-11 8-7 8-8 8-7 10-9 11-11 9-7z" fill="#FEFEFE"/>
<path transform="translate(1311,862)" d="m0 0h103l3 1 1 3v7l-3 9-2 1-13 1-32 1v174h-4l2-1v-174l-3-1-5 4-7-1 1-2-5-1 1 45v129h6v1h-7l-1-42-1-131-37-1-11-1-2-3v-15l2-2z" fill="#FE9051"/>
<path transform="translate(2024,863)" d="m0 0 24 1v53l-2 2-1 10-3 6 2 6v5l-2 2 1 12-3 1 1 5h-3l2 6-3 3-2 9-2 6v3l-1 9-3 2-1-1-2 5-1-2h-2l-5-7 1-2 5 5 1-7-1-37z" fill="#FE8940"/>
<path transform="translate(2045,916)" d="m0 0 3 1v142h-10l-10-2-8-14v-4h-2l-4-9v-3l-3-7 1-3 4 4 2-7 3-3-3-7v-5l5 5v2l3 1 1-23h1l1 19 2-2 1-9v-2l1-6h2l1-9 3-4-1-5h3l-2-6h3l-1-13 2-2-1-7-1-4 3-5z" fill="#FE743D"/>
<path transform="translate(428,876)" d="m0 0 1 4 3 1v9l-1 5h-1l-1-5-6 3-15 14-9 9-8 7-10 9-7 7-8 7-13 13-8 7-12 10-11 7-11 9 1 5 8 7 6 5 5 1 6-3 11-12 7-8 6-7 8-7 11-11 7-8 12-13v3l-13 15-9 10-7 8-38 38-5-1-3-2v-2h-2l-7-8-7-6v-2l-5-2-4-6-6-3-4-4 1-2 6 5 7 1 6-4 12-11 11-9 13-11 11-9 16-15 8-7 7-7 11-9 9-8 11-9z" fill="#FEB39A"/>
<path transform="translate(794,871)" d="m0 0h15l6 3 6 4 3 5 5 5 6 14 3 18v10l-2 12-8 16-7 8-10 7-6 3-4-1 2-4 5-5 3-5-1-7 3-4 5-14v-22l-3-12v-4h-2l-6-8-7-5-7-2-22-3 3-3 13-4z" fill="#FE6917"/>
<path transform="translate(488,784)" d="m0 0 7 2 4 5 3 5 2 11v15l-4 10-8 13-5 5-7-1-8-9-2-4-6-3-6-7-1-7 6-9 11-12 5-4 3-3 4-1z" fill="#FEFEFE"/>
<path transform="translate(813,948)" d="m0 0v3l-2 5 1 5-4 8-5 2-1 4 3 2-16 4-8 1h-36l-1 62h-1v-59l-2-1-4-1-2-4v-12h6l2-10 2 4 2 1 17 1h14l13-1 9-3 8-6z" fill="#FE7641"/>
<path transform="translate(1932,862)" d="m0 0h10l4 2h-2v5l2 5 1 8v2h-2l-4-9h-1l-1 4-4-1-1 1-1 7v14l7-2 4 10 2 2-4 1v5l-4-2-2-7h-2l-1 7v144h-2l-1-5-1-36v-141l2-13z" fill="#FE9B6B"/>
<path transform="translate(1393,876)" d="m0 0h5v2l5-1 11 2-1 4-13 1-32 1v174h-4l2-1v-174l-3-1-5 4-7-1 1-2-5-1 1 45v129h6v1h-7l-1-42-1-134 1-2 16-2 11 1 2-1 15-1z" fill="#FE8857"/>
<path transform="translate(149,1113)" d="m0 0 8 1 4 2v2h2l1 3 4 2 3 5 10 8 2 3-1 1h-14l-8-1-25-1-6-3 1-4 10-9 6-7z" fill="#FEFDFD"/>
<path transform="translate(756,862)" d="m0 0h19l20 2 4 2-17-1h-18l-38 2-1 1v189h19v-75l2-1-1 77h-23l-1-13v-170l1-10 1-1z" fill="#FEB39A"/>
<path transform="translate(253,950)" d="m0 0h2v2l4 1 10 9 6 10-3 2-16 1-9 1-12 3-7-2 1-4 5-5h2l2-4 12-12z" fill="#FEFDFD"/>
<path transform="translate(1300,864)" d="m0 0h115l1 4-9 2-1 1-17 1h-6v-2l-5 1-2-1v2l-17-1-9-1-8-1-17-1-7-1h-21l-1 2 1-4z" fill="#FE733C"/>
<path transform="translate(940,873)" d="m0 0 2 1-16 16-3 9-1 12-1 43v58l3 14 1 6-2-2-3-9-3-21-1-14v-62l2-21 4-11 7-9 8-8z" fill="#FE833E"/>
<path transform="translate(1976,916)" d="m0 0 3 4 21 42-1 2-2-3h-2l-1 2-5-2-4-5-4-7v-2h-2l-4-9-4-7-2-1v-12l4-1 2 1z" fill="#FE7945"/>
<path transform="translate(322,1021)" d="m0 0v3l-11 9-18 13-13 10-11 7-15 9-28 16-17 9-16 8-4 1v6l-2-3v-5l15-8 16-8 27-15 30-18 22-15 16-12z" fill="#FEB39A"/>
<path transform="translate(1617,902)" d="m0 0h1v155h7v1h-8l-1-1-1-108-1-29-1-6-4 2 2-6 3-6h3z" fill="#FEB39A"/>
<path transform="translate(1500,863)" d="m0 0h9v1l-10 2-2 6v185h8v1h-9l-1-1-1-89v-83l1-18 2-3z" fill="#FEB39A"/>
<path transform="translate(748,881)" d="m0 0h35v1l-34 2-4 1v70l1 5 2 1h41l10-3 9-7 5-6 3-9v-24l-3-14h2l4 16v22l-4 10-7 8-5 4-8 4-4 1-14 1h-18l-12-1-3-2-1-4v-73z" fill="#FEAE93"/>
<path transform="translate(1581,933)" d="m0 0 1 4-4 8v3l5 1-1 7-1 2h-2l-1 4-4 2v2l-5 1-3-1-3-6-1-7 6 2 6-8z" fill="#FE7641"/>
<path transform="translate(274,969)" d="m0 0 3 3-1 3-24 5-18 4h-8l-3-1-1-4 8-9 2 1-3 3-1 3 7 1 17-4h11l9-1 2-2z" fill="#FEB39A"/>
<path transform="translate(283,978)" d="m0 0 7 6 4 4-1 4-12 3h-8l-3-4 1-5 7-5h5z" fill="#FEFEFE"/>
<path transform="translate(921,894)" d="m0 0 1 3-2 11-1 23v60l2 21 3 14 1 6-2-2-3-9-3-21-1-14v-62l2-21z" fill="#FEB39A"/>
<path transform="translate(1619,888)" d="m0 0 2 1-1 57-1 111h-1l-1-153h-3l3-10z" fill="#FE7E3E"/>
<path transform="translate(485,802)" d="m0 0 4 2 4 6 2 5-1 7-8 10-1 1h-5l3-7 2-15z" fill="#FEAD91"/>
<path transform="translate(2024,863)" d="m0 0 3 1h-2l1 88 1 31v24l-2 1v-2h-2l-5-7 1-2 5 5 1-7-1-37z" fill="#FEB39A"/>
<path transform="translate(162,1113)" d="m0 0 6 2 11 10 3 7-1 1h-5l-8-7v-3l-5-2z" fill="#FE7026"/>
<path transform="translate(1933,863)" d="m0 0h13l-2 1v5l2 5 1 8v2h-2l-4-9-1-3-6 1h-1l-1 3h-1v-8z" fill="#FE743E"/>
<path transform="translate(276,981)" d="m0 0 2 1-6 4-1 5 2 3h8l12-3 2-2 6 7h-2l-1 3-7 1h-9v-1l8-1 2-3-7 1h-14l-3-4 1-5 5-5z" fill="#FEB39A"/>
<path transform="translate(1950,897)" d="m0 0h1l1 10 2 5-1 7-1 44h-1l-1-45-4-7 1-4-1-3h2v-2h2z" fill="#FE9764"/>
<path transform="translate(285,977)" d="m0 0h4l5 6 6 3 3 5 3 3h-4l6 8-4-2-12-13-6-5z" fill="#FE793B"/>
<path transform="translate(1366,956)" d="m0 0h1l1 103h-4l2-1z" fill="#FE7540"/>
<path transform="translate(2026,928)" d="m0 0 3 3 1 11v10l-2 12h-1l-1-11z" fill="#FF6712"/>
<path transform="translate(764,864)" d="m0 0h18v1l-7 1-6 2-5 1-6-1-2 1h-5l1-3-9 2-1-3z" fill="#FE733C"/>
<path transform="translate(1171,862)" d="m0 0h11l13 2v1l-30 1-12 3-4-1 15-5z" fill="#FE9969"/>
<path transform="translate(285,995)" d="m0 0h7l-2 4-12 2h-11l4-4z" fill="#FE6815"/>
<path transform="translate(130,1129)" d="m0 0 2 1-2 2v3l5 2 25 1 8 1h14l2-1 2 1v2h-19l-8-1-27-1-4-2-1-4z" fill="#FEB39A"/>
<path transform="translate(1932,871)" d="m0 0 3 1h5v7l-5-1-1 1-1 7v11l-2 1v-22z" fill="#FF8A40"/>
<path transform="translate(304,898)" d="m0 0h2l-2 4-14 14-5 3 2-5 10-10z" fill="#FE691B"/>
<path transform="translate(1809,976)" d="m0 0 2 3 4 15v4l-40-1v-1h38l-4-16z" fill="#FEB39A"/>
<path transform="translate(302,994)" d="m0 0h6l2 3v3l4 2 1 4h-4l-7-8z" fill="#FE6816"/>
<path transform="translate(940,873)" d="m0 0 2 1-16 16-3 6-1-4 7-9 8-8z" fill="#FE8E57"/>
<path transform="translate(1575,945)" d="m0 0 1 3-5 9-4 4h-2l-3-6 1-2 5 2 6-8z" fill="#FEB39A"/>
<path transform="translate(189,1112)" d="m0 0 2 2 6 16 2 2-1 8-5 1-1-2 4-2 1-4-3-3-5-15z" fill="#FEB39A"/>
<path transform="translate(1815,995)" d="m0 0 2 3 4 15-1 3v-2l-12-1v-1h9l-2-11z" fill="#FE733C"/>
<path transform="translate(296,985)" d="m0 0 4 1 3 5 3 3h-4l6 8-4-2-7-8 1-5z" fill="#FE7B49"/>
<path transform="translate(510,1198)" d="m0 0h2l-2 4-9 7h-2l1-4 4-4 5-2z" fill="#FE6818"/>
<path transform="translate(181,1129)" d="m0 0 7 6 4 4-6-2v-2l-3 1 1 2-4-2-2-3 3-2z" fill="#FE8B5F"/>
<path transform="translate(262,952)" d="m0 0 4 2 5 8-1 2-9-10z" fill="#FF6712"/>
<path transform="translate(1507,864)" d="m0 0 7 1 2 4-6-3v2h-2l-1 2-3-1 1-3h2z" fill="#FE7E4D"/>
<path transform="translate(292,984)" d="m0 0h4v2l3 1-1 4-4-2-2-2z" fill="#FE6E24"/>
<path transform="translate(1135,876)" d="m0 0 2 1-4 3zm-5 4 3 1-8 8-2-1z" fill="#FE8D55"/>
<path transform="translate(285,995)" d="m0 0h7l-2 4h-8l2-1z" fill="#FE733C"/>
<path transform="translate(2028,865)" d="m0 0h20v5l-3-3-17-1z" fill="#FE733C"/>
<path transform="translate(1623,865)" d="m0 0 2 1-9 9-1-2 5-6zm-10 10 2 1-2 1z" fill="#FE854D"/>
</svg>
