<svg version="1.1" id="Layer_1" xmlns="http://www.w3.org/2000/svg" xmlns:xlink="http://www.w3.org/1999/xlink" x="0px" y="0px"
	 width="100%" viewBox="0 0 263 145" enable-background="new 0 0 263 145" xml:space="preserve">
<path fill="#FEFEFE" opacity="1.000000" stroke="none" 
	d="
M264.000000,117.000000 
	C264.000000,126.653557 264.000000,136.307114 264.000000,145.954483 
	C176.333313,145.948288 88.666649,145.948288 1.000000,145.948288 
	C1.000000,135.910156 1.000000,125.923737 1.399511,115.376373 
	C5.150826,115.405281 5.500097,113.568260 5.482152,110.789421 
	C5.377829,94.634628 5.431437,78.478821 5.431638,62.323360 
	C5.431681,58.896152 5.431644,55.468948 5.431644,51.612473 
	C10.921139,51.612473 15.846425,51.612473 20.954374,51.612473 
	C20.954374,49.222038 20.954374,47.287266 20.954374,45.000000 
	C14.233638,45.000000 7.616819,45.000000 1.000000,45.000000 
	C1.000000,30.351847 1.000000,15.703692 1.000006,1.055734 
	C88.666679,1.055929 176.333359,1.055929 264.000000,1.055929 
	C264.000000,14.095467 264.000000,27.079075 263.571808,40.535675 
	C261.085938,41.725555 259.028259,42.442448 256.527100,43.152920 
	C253.720245,43.029728 251.356873,42.912956 248.899368,42.653046 
	C248.538345,42.609840 248.271439,42.709766 247.581924,42.885323 
	C245.443909,42.981819 243.728500,43.002682 241.761459,42.735947 
	C239.758423,42.459038 237.513947,41.778267 236.347900,42.609783 
	C232.820999,45.124870 229.450317,45.864082 224.879333,42.585846 
	C225.895065,45.159283 226.446884,46.557396 226.551102,46.821423 
	C224.375961,49.752953 222.744797,51.951344 221.073669,54.094978 
	C221.033722,54.040218 221.149841,54.110176 220.784714,54.114983 
	C220.002396,54.869564 219.585190,55.619339 219.111145,56.632648 
	C218.679398,57.257957 218.304520,57.619732 217.704559,58.096127 
	C217.333679,58.505436 217.187866,58.800125 217.007599,59.376389 
	C216.652893,60.106922 216.332611,60.555874 215.647034,61.037483 
	C211.966034,63.883556 209.672882,71.945221 211.080612,76.452606 
	C211.117371,79.251450 211.104813,81.610397 210.790207,84.223679 
	C210.380692,90.064705 209.900620,95.796898 216.079559,98.931717 
	C216.034592,98.952370 216.073395,98.861328 216.117889,99.110825 
	C216.405121,99.582588 216.647858,99.804848 217.152954,100.067551 
	C217.592026,100.098419 217.768753,100.088837 217.971588,100.045029 
	C217.997696,100.010818 217.921707,100.051239 217.944168,100.356224 
	C218.331284,101.389160 218.695938,102.117111 219.119186,103.100174 
	C219.438995,103.573273 219.700211,103.791267 220.215118,104.034454 
	C220.638763,104.057480 220.808716,104.055305 221.059479,104.284592 
	C221.335220,104.806686 221.606232,104.974449 222.064575,105.300102 
	C222.694153,105.842087 223.212479,106.103302 223.741882,106.292763 
	C223.752960,106.221008 223.628586,106.295967 223.655670,106.583313 
	C223.790588,107.242043 223.898453,107.613434 224.110565,108.225555 
	C224.514084,108.630280 224.813370,108.794281 225.399994,108.995422 
	C226.116302,109.388557 226.545258,109.744553 227.087814,110.312988 
	C227.417175,110.789879 227.695084,110.936714 228.028534,110.975098 
	C228.021912,110.984261 228.045044,110.959816 228.066071,111.323097 
	C228.860794,112.449295 229.517960,113.671814 230.426697,113.902237 
	C237.536713,115.705139 244.641373,117.632263 251.859970,118.862122 
	C255.729004,119.521324 260.324982,121.870056 263.517273,117.021454 
	C263.569214,116.942566 263.834351,117.004036 264.000000,117.000000 
M182.077026,94.576180 
	C182.239655,94.836967 182.471756,94.997055 183.365387,95.428047 
	C186.518112,99.006126 189.670853,102.584198 192.929810,106.859360 
	C194.941406,108.946938 196.953018,111.034523 199.063782,113.700317 
	C200.084381,113.800507 201.104996,113.900696 202.740433,113.626724 
	C206.812317,108.174492 204.400238,101.817070 204.762329,95.980545 
	C205.532822,83.561317 205.171478,71.057404 204.906815,58.596004 
	C204.810364,54.054344 203.670517,49.534840 203.280945,44.893280 
	C203.185532,44.926598 203.090118,44.959915 202.447968,45.027473 
	C202.266510,45.047916 202.085052,45.068363 201.946533,45.063763 
	C201.946533,45.063763 201.927246,45.108475 201.958862,44.327316 
	C201.073746,43.241962 200.188629,42.156605 199.303513,41.071251 
	C198.532486,41.985149 197.761444,42.899048 196.481949,44.018536 
	C196.052567,44.340824 195.623184,44.663113 194.608398,45.275990 
	C194.665283,46.542030 194.722183,47.808071 194.976532,49.127930 
	C194.976532,49.127930 195.099930,48.964645 194.975372,49.897171 
	C194.917908,55.257751 194.860443,60.618332 194.109741,66.166885 
	C192.698044,68.312851 191.776260,70.400818 194.940018,72.896568 
	C194.894379,75.257263 194.848755,77.617958 194.118500,80.081917 
	C193.007187,80.786705 191.895874,81.491486 189.797485,82.822250 
	C192.253159,83.900574 193.528259,84.460495 194.940765,85.805595 
	C194.897491,86.864479 194.854233,87.923370 194.085159,89.005409 
	C192.440811,88.666481 190.622314,88.658386 189.195084,87.907051 
	C187.301666,86.910309 185.713776,85.333221 184.039871,83.384857 
	C183.456421,82.004845 183.103500,80.457108 182.245056,79.277168 
	C179.935516,76.102699 177.410110,73.085258 174.533920,69.453888 
	C172.399429,67.411880 170.377441,65.233131 168.102707,63.361572 
	C165.083832,60.877762 161.867676,58.633724 158.759918,56.265057 
	C158.759918,56.265057 158.733902,56.257660 158.891830,55.455486 
	C158.290253,49.960831 156.470123,48.171608 151.086044,47.841511 
	C151.086044,47.841511 150.929352,47.499287 151.448990,46.931728 
	C151.222412,46.140324 150.995834,45.348915 150.769257,44.557510 
	C150.152435,44.776360 149.535629,44.995213 148.263428,45.062679 
	C147.822449,45.040203 147.381485,45.017727 146.175735,45.161427 
	C146.317398,49.112453 146.459061,53.063477 146.816452,57.095451 
	C146.816452,57.095451 147.029282,57.007153 146.843170,57.735912 
	C146.767151,58.480911 146.691132,59.225906 145.908890,60.225468 
	C145.303894,63.484764 144.105820,66.761147 144.199173,70.000313 
	C144.555222,82.353477 145.339600,94.694077 145.935638,107.040726 
	C146.079254,110.015694 144.972244,114.111084 146.502151,115.677528 
	C148.223572,117.440094 152.277786,116.924309 155.495926,117.427551 
	C155.890808,116.046341 156.292587,114.640999 156.694382,113.235664 
	C156.129532,113.154915 155.564682,113.074158 154.603790,112.971672 
	C154.603790,112.971672 154.207153,112.971291 154.075119,112.046059 
	C154.117279,102.362228 154.159439,92.678398 154.670120,82.478577 
	C154.782333,81.321739 154.894547,80.164902 155.597641,78.920441 
	C155.913239,78.515015 156.228836,78.109596 156.544434,77.704163 
	C156.031891,77.468040 155.519363,77.231918 155.007797,76.196243 
	C155.005997,75.130020 155.004181,74.063789 155.675735,72.890289 
	C157.009659,70.052879 159.295929,70.411697 161.890381,71.052979 
	C161.890381,71.052979 161.923538,71.265518 162.040604,71.606979 
	C162.171509,71.829178 162.363739,71.963875 162.998703,72.422798 
	C163.079590,72.591499 163.160461,72.760193 162.530319,73.021034 
	C162.356552,73.977654 162.182785,74.934273 162.009003,75.890892 
	C163.015961,75.555344 164.022903,75.219795 165.585999,75.129501 
	C166.047028,75.778992 166.508041,76.428482 166.967316,77.841026 
	C167.034714,80.872345 168.573257,82.341957 171.625961,82.468597 
	C171.625961,82.468597 171.843658,82.594177 171.503143,83.421532 
	C171.002594,87.253624 173.692001,87.539536 176.902557,88.147102 
	C177.910110,89.134537 178.917679,90.121964 179.983276,91.005028 
	C179.983276,91.005028 179.890106,91.079750 180.060028,91.614761 
	C180.356613,92.080414 180.653198,92.546074 180.452957,93.020004 
	C180.198944,93.186241 179.944931,93.352478 179.690933,93.518723 
	C180.121597,93.686424 180.552246,93.854126 181.420563,94.056030 
	C181.420563,94.056030 181.859375,94.068100 181.960526,94.066811 
	C181.960526,94.066811 181.939468,94.165764 182.077026,94.576180 
M38.287407,64.029289 
	C35.202534,66.638428 32.117661,69.247566 29.067865,71.912865 
	C29.067865,71.912865 28.943565,71.936127 28.266125,72.327621 
	C26.547846,77.552017 24.829569,82.776413 22.956697,88.661247 
	C23.009197,89.107269 23.061695,89.553284 22.970562,90.817177 
	C24.318300,104.550087 32.825489,113.860909 45.841274,115.848351 
	C58.112030,117.722038 69.656517,111.544617 74.452232,100.346428 
	C72.806183,99.443298 71.138794,98.528458 69.715134,97.747345 
	C69.117188,98.090706 68.931656,98.139198 68.840988,98.259323 
	C68.443375,98.786118 68.059990,99.324867 67.695114,99.874977 
	C62.712914,107.386520 55.508343,110.795647 46.784210,109.698792 
	C37.984066,108.592369 32.771069,102.813683 30.283754,94.406357 
	C29.903893,93.122398 28.813250,92.048729 28.034737,90.461830 
	C28.034737,90.461830 28.121655,90.054718 28.584911,89.953369 
	C28.922312,89.816658 29.084936,89.566383 29.807343,89.109421 
	C30.540688,89.037430 31.274033,88.965439 32.496449,89.066948 
	C32.662399,89.018143 32.828354,88.969345 33.915100,89.112190 
	C44.278744,89.046715 54.642384,88.981232 65.744049,89.078636 
	C66.493729,89.020439 67.243401,88.962242 68.860397,89.109108 
	C71.282509,89.109108 73.704620,89.109108 76.104538,89.109108 
	C76.443535,77.738976 71.161224,68.867325 61.152729,64.071404 
	C53.776646,61.495045 46.396801,60.286835 38.287407,64.029289 
M129.607086,114.414398 
	C129.693542,113.951553 129.780014,113.488701 130.020508,112.096466 
	C130.020508,97.823357 130.020508,83.550247 130.020508,68.809616 
	C133.657837,68.809616 136.890549,68.809616 140.274719,68.809616 
	C140.274719,66.614563 140.274719,64.893379 140.274719,62.726906 
	C136.733337,62.726906 133.492203,62.726906 129.882843,62.726906 
	C129.882843,56.185909 129.882843,50.087784 129.882843,44.176739 
	C127.423721,44.176739 125.369202,44.176739 122.917389,44.176739 
	C122.917389,50.595158 122.917389,56.661968 122.917389,63.084431 
	C119.753914,63.084431 116.997055,63.084431 113.946098,63.084431 
	C114.077652,65.198006 114.184776,66.918999 114.319893,69.089752 
	C117.481003,69.089752 120.209274,69.089752 123.221603,69.089752 
	C123.221603,84.503479 123.221603,99.437355 123.221603,114.774261 
	C125.321991,114.680595 127.101906,114.601227 129.607086,114.414398 
M98.912041,93.527885 
	C104.342674,97.618416 105.472115,101.948685 102.187164,106.084740 
	C97.866463,111.524902 92.020226,111.052155 83.286171,104.407349 
	C82.018860,105.835800 80.738678,107.278755 78.671349,109.608932 
	C82.490929,111.661079 85.574654,113.925812 89.029526,115.054535 
	C97.702438,117.888000 105.613731,114.418350 109.066010,106.805824 
	C112.387482,99.481728 109.707275,92.610565 101.520332,87.593559 
	C98.275497,85.605095 94.853333,83.881844 91.737358,81.713799 
	C88.312920,79.331116 86.472740,76.083626 88.521645,71.851936 
	C90.189674,68.406914 94.681816,66.849594 98.901413,68.491455 
	C101.459068,69.486649 103.748734,71.170586 106.155952,72.537834 
	C107.509811,71.350960 108.863678,70.164085 110.961823,68.324722 
	C107.061539,66.123016 103.994934,63.829975 100.550705,62.565502 
	C93.541817,59.992325 86.210381,62.975163 83.048424,69.132515 
	C79.813530,75.431900 81.699257,82.683731 88.021660,87.071533 
	C91.277809,89.331322 94.862816,91.117256 98.912041,93.527885 
M238.582687,121.702461 
	C234.913589,119.103706 233.461151,119.265205 231.333267,123.138382 
	C233.948029,122.881821 236.168747,122.663933 238.582687,121.702461 
M215.681702,106.460571 
	C215.798386,107.222137 215.915070,107.983704 216.031754,108.745270 
	C216.469406,108.662148 216.907043,108.579025 217.344696,108.495903 
	C217.004639,107.785141 216.664581,107.074379 215.681702,106.460571 
M208.722351,48.117153 
	C208.530685,47.575058 208.339020,47.032967 208.147354,46.490879 
	C207.869415,46.617950 207.591476,46.745026 207.313553,46.872093 
	C207.638443,47.430031 207.963333,47.987968 208.722351,48.117153 
M220.398804,112.199310 
	C220.788223,112.203773 221.177658,112.208237 221.567078,112.212700 
	C221.568558,112.051147 221.580994,111.749199 221.569916,111.748329 
	C221.182327,111.718056 220.792496,111.716110 220.398804,112.199310 
z"/>
<path fill="#FEFEFD" opacity="1.000000" stroke="none" 
	d="
M264.000000,55.000000 
	C264.000000,63.354233 264.000000,71.708466 263.551758,80.517044 
	C260.857513,80.971390 258.611481,80.971390 256.471405,80.971390 
	C255.626007,88.016930 255.683441,88.091263 261.520630,88.088463 
	C262.347076,88.088066 263.173553,88.030891 264.000000,88.000000 
	C264.000000,93.688042 264.000000,99.376083 263.620605,105.498413 
	C260.400208,104.891762 257.687439,104.088623 257.713074,108.900391 
	C257.338531,109.097923 257.192871,109.184608 256.677002,109.176666 
	C255.543106,109.054924 254.779404,109.027809 253.778015,108.737389 
	C252.018997,108.669113 250.497665,108.864143 248.547943,109.074966 
	C246.412140,109.105499 244.704742,109.120239 242.691544,109.034927 
	C241.960403,108.884903 241.535049,108.834938 241.114365,108.582382 
	C241.119034,108.379784 241.001724,107.991737 240.944733,107.631950 
	C238.829636,106.575943 236.771515,105.879730 234.526413,105.168297 
	C234.339417,105.153076 234.013702,104.966759 233.980286,104.622612 
	C232.374817,103.117989 230.802780,101.957504 229.146637,100.453156 
	C227.764328,99.011398 226.466110,97.913513 225.113464,96.433868 
	C224.069778,94.680260 227.014404,90.358826 221.805267,91.895233 
	C221.594833,91.797279 221.152527,91.656219 221.149536,91.347267 
	C221.053146,90.428398 220.959763,89.818489 220.925980,88.772865 
	C220.401321,84.198303 219.817062,80.059441 219.203735,75.612846 
	C219.232071,74.898155 219.289459,74.491211 219.676407,74.002808 
	C222.248749,72.064690 224.178696,70.118683 222.023468,66.677139 
	C222.148346,65.941559 222.233917,65.523613 222.504456,65.100792 
	C222.689423,65.095917 223.053894,65.031799 223.431824,65.023720 
	C225.896454,62.393173 227.983124,59.770702 230.201233,57.026260 
	C230.332657,56.904289 230.673126,56.791626 230.968323,56.776382 
	C231.484192,56.458260 231.704895,56.155376 232.053253,55.649597 
	C232.412949,55.208847 232.693161,55.064438 233.231110,54.990147 
	C233.721954,54.868122 233.923218,54.682625 234.289673,54.254272 
	C234.898407,53.968231 235.261887,53.838242 236.075623,53.797882 
	C239.805084,53.249107 243.140427,51.882626 246.351318,52.130188 
	C252.272766,52.586731 258.121155,53.990765 264.000000,55.000000 
z"/>
<path fill="#F8C217" opacity="1.000000" stroke="none" 
	d="
M230.673126,56.791626 
	C230.673126,56.791626 230.332657,56.904289 229.866165,57.078171 
	C227.284409,59.845299 225.169159,62.438549 223.053894,65.031799 
	C223.053894,65.031799 222.689423,65.095917 222.195312,65.191109 
	C221.465378,65.852509 221.229568,66.418716 220.949921,67.257820 
	C220.645554,68.015602 220.385040,68.500496 219.851196,69.145981 
	C219.450729,69.699135 219.323563,70.091698 219.264084,70.597763 
	C219.331757,70.711273 219.211670,70.946709 218.875092,71.213699 
	C218.599579,75.634224 218.660675,79.787758 218.804108,84.297699 
	C218.953995,85.381577 219.021561,86.109055 219.067078,87.153687 
	C219.354752,87.981728 219.664474,88.492607 220.193649,89.070389 
	C220.413101,89.137299 220.866379,89.208572 220.866379,89.208572 
	C220.959763,89.818489 221.053146,90.428398 221.099304,91.738899 
	C222.020065,93.960434 222.988068,95.481392 223.980469,96.998260 
	C224.004883,96.994179 223.997284,97.043076 224.028656,97.380226 
	C224.839630,98.426628 225.619232,99.135872 226.559692,99.910080 
	C226.720581,99.975044 226.963440,100.222931 227.007385,100.532227 
	C227.795029,101.469231 228.538742,102.096939 229.241440,102.722725 
	C229.200424,102.720795 229.262283,102.774811 229.291412,103.040871 
	C229.623779,103.451523 229.927032,103.596115 230.250534,103.736885 
	C230.270782,103.733063 230.301224,103.705269 230.295547,103.990341 
	C230.542099,104.549591 230.794327,104.823769 230.981888,105.421524 
	C230.259872,106.841103 229.602524,107.937088 228.647354,108.890648 
	C226.775879,107.930801 225.202240,107.113388 223.628586,106.295975 
	C223.628586,106.295967 223.752960,106.221008 223.703079,105.967278 
	C223.086578,105.482140 222.519943,105.250740 221.953323,105.019341 
	C221.606232,104.974449 221.335220,104.806686 221.048920,103.928741 
	C219.945602,102.244713 218.933655,101.147972 217.921707,100.051239 
	C217.921707,100.051239 217.997696,100.010818 218.000977,99.809387 
	C217.677261,99.358665 217.350281,99.109375 216.785782,98.830566 
	C216.548264,98.801041 216.073395,98.861328 216.073395,98.861328 
	C216.073395,98.861328 216.034592,98.952370 216.031372,98.564545 
	C214.382858,93.440926 212.737564,88.705132 211.092255,83.969337 
	C211.104813,81.610397 211.117371,79.251450 211.308945,76.157516 
	C212.996094,70.616623 214.504211,65.810722 216.012344,61.004822 
	C216.332611,60.555874 216.652893,60.106922 217.250854,59.279709 
	C217.662231,58.594803 217.795929,58.288155 217.929642,57.981506 
	C218.304520,57.619732 218.679398,57.257957 219.406250,56.511971 
	C220.222092,55.455231 220.685974,54.782707 221.149841,54.110176 
	C221.149841,54.110176 221.033722,54.040218 221.407349,54.024590 
	C228.525024,50.347153 235.269058,46.685345 242.013107,43.023544 
	C243.728500,43.002682 245.443909,42.981819 247.830170,42.956482 
	C248.665207,42.900063 248.829361,42.848122 248.993500,42.796181 
	C251.356873,42.912956 253.720245,43.029728 256.756836,43.435249 
	C259.620026,44.149338 261.809998,44.574669 264.000000,45.000000 
	C264.000000,47.041668 264.000000,49.083332 263.598450,51.537739 
	C261.115570,51.462303 259.058136,50.776947 256.948639,50.521610 
	C249.567200,49.628155 242.168335,48.886406 235.625381,53.708252 
	C235.261887,53.838242 234.898407,53.968231 234.057159,54.202141 
	C233.230652,54.413368 233.044693,54.649174 233.021530,55.013477 
	C232.693161,55.064438 232.412949,55.208847 231.781540,55.706993 
	C231.145828,56.242062 230.909485,56.516846 230.673126,56.791626 
z"/>
<path fill="#0C0C0C" opacity="1.000000" stroke="none" 
	d="
M1.000000,45.468658 
	C7.616819,45.000000 14.233638,45.000000 20.954374,45.000000 
	C20.954374,47.287266 20.954374,49.222038 20.954374,51.612473 
	C15.846425,51.612473 10.921139,51.612473 5.431644,51.612473 
	C5.431644,55.468948 5.431681,58.896152 5.431638,62.323360 
	C5.431437,78.478821 5.377829,94.634628 5.482152,110.789421 
	C5.500097,113.568260 5.150826,115.405281 1.399511,114.907715 
	C1.000000,91.979103 1.000000,68.958214 1.000000,45.468658 
M5.566594,49.295788 
	C5.294776,49.010925 5.022958,48.726059 4.751141,48.441196 
	C4.633284,48.553928 4.406730,48.758427 4.413249,48.766148 
	C4.666924,49.066620 4.941867,49.349129 5.566594,49.295788 
z"/>
<path fill="#FBC104" opacity="1.000000" stroke="none" 
	d="
M228.945175,109.033073 
	C229.602524,107.937088 230.259872,106.841103 231.264786,105.382858 
	C231.798386,104.979347 231.984421,104.938080 232.478775,104.935616 
	C233.195969,104.971870 233.604828,104.969315 234.013702,104.966759 
	C234.013702,104.966759 234.339417,105.153076 234.608002,105.433182 
	C235.258438,106.111633 235.640289,106.509987 236.057449,107.257439 
	C237.765076,107.999352 239.437378,108.392166 241.109695,108.784973 
	C241.535049,108.834938 241.960403,108.884903 242.922546,109.307007 
	C245.805923,110.441780 248.114014,111.629593 250.510025,111.846634 
	C252.873871,112.060776 256.103485,113.179413 257.047241,109.271294 
	C257.192871,109.184608 257.338531,109.097923 258.043213,109.002945 
	C259.062714,109.014359 259.523224,109.034058 260.229248,109.309746 
	C261.649841,109.710487 262.824921,109.855240 264.000000,110.000000 
	C264.000000,111.066673 264.000000,112.133339 263.546295,113.601982 
	C256.193817,114.013359 249.289383,114.190735 242.398804,113.958038 
	C239.176117,113.849205 235.980194,112.947960 232.751221,112.381805 
	C232.730286,112.357750 232.674454,112.388535 232.642426,112.056976 
	C231.388672,110.827980 230.166916,109.930527 228.945175,109.033073 
z"/>
<path fill="#FDFAE2" opacity="1.000000" stroke="none" 
	d="
M264.000000,116.666672 
	C263.834351,117.004036 263.569214,116.942566 263.517273,117.021454 
	C260.324982,121.870056 255.729004,119.521324 251.859970,118.862122 
	C244.641373,117.632263 237.536713,115.705139 230.426697,113.902237 
	C229.517960,113.671814 228.860794,112.449295 228.416473,111.359619 
	C230.055389,111.484749 231.364914,111.936646 232.674454,112.388535 
	C232.674454,112.388535 232.730286,112.357750 232.960510,112.663940 
	C243.189163,117.764885 253.572739,116.713860 264.000000,115.000000 
	C264.000000,115.444443 264.000000,115.888893 264.000000,116.666672 
z"/>
<path fill="#FEF5C0" opacity="1.000000" stroke="none" 
	d="
M236.075623,53.797882 
	C242.168335,48.886406 249.567200,49.628155 256.948639,50.521610 
	C259.058136,50.776947 261.115570,51.462303 263.598450,51.975239 
	C264.000000,52.750000 264.000000,53.500000 264.000000,54.625000 
	C258.121155,53.990765 252.272766,52.586731 246.351318,52.130188 
	C243.140427,51.882626 239.805084,53.249107 236.075623,53.797882 
z"/>
<path fill="#F1C127" opacity="1.000000" stroke="none" 
	d="
M264.000000,87.562500 
	C263.173553,88.030891 262.347076,88.088066 261.520630,88.088463 
	C255.683441,88.091263 255.626007,88.016930 256.471405,80.971390 
	C258.611481,80.971390 260.857513,80.971390 263.551758,80.985695 
	C264.000000,83.041664 264.000000,85.083336 264.000000,87.562500 
z"/>
<path fill="#F1C339" opacity="1.000000" stroke="none" 
	d="
M264.000000,114.750000 
	C253.572739,116.713860 243.189163,117.764885 232.981430,112.687996 
	C235.980194,112.947960 239.176117,113.849205 242.398804,113.958038 
	C249.289383,114.190735 256.193817,114.013359 263.546295,114.001976 
	C264.000000,114.000000 264.000000,114.500000 264.000000,114.750000 
z"/>
<path fill="#FDFAE2" opacity="1.000000" stroke="none" 
	d="
M264.000000,44.600006 
	C261.809998,44.574669 259.620026,44.149338 257.200317,43.441673 
	C259.028259,42.442448 261.085938,41.725555 263.571808,41.004333 
	C264.000000,42.066669 264.000000,43.133339 264.000000,44.600006 
z"/>
<path fill="#FEF5C0" opacity="1.000000" stroke="none" 
	d="
M259.983734,109.053757 
	C259.523224,109.034058 259.062714,109.014359 258.272034,108.892105 
	C257.687439,104.088623 260.400208,104.891762 263.620605,105.966354 
	C264.000000,106.444443 264.000000,106.888893 263.648193,107.645813 
	C262.192139,108.323448 261.087952,108.688599 259.983734,109.053757 
z"/>
<path fill="#F4C42E" opacity="1.000000" stroke="none" 
	d="
M260.229248,109.309738 
	C261.087952,108.688599 262.192139,108.323448 263.648193,107.979149 
	C264.000000,108.444443 264.000000,108.888893 264.000000,109.666664 
	C262.824921,109.855240 261.649841,109.710487 260.229248,109.309738 
z"/>
<path fill="#101010" opacity="1.000000" stroke="none" 
	d="
M98.605637,93.322594 
	C94.862816,91.117256 91.277809,89.331322 88.021660,87.071533 
	C81.699257,82.683731 79.813530,75.431900 83.048424,69.132515 
	C86.210381,62.975163 93.541817,59.992325 100.550705,62.565502 
	C103.994934,63.829975 107.061539,66.123016 110.961823,68.324722 
	C108.863678,70.164085 107.509811,71.350960 106.157379,72.541466 
	C103.748734,71.170586 101.459068,69.486649 98.901413,68.491455 
	C94.681816,66.849594 90.189674,68.406914 88.521645,71.851936 
	C86.472740,76.083626 88.312920,79.331116 91.737358,81.713799 
	C94.853333,83.881844 98.275497,85.605095 101.520332,87.593559 
	C109.707275,92.610565 112.387482,99.481728 109.066010,106.805824 
	C105.613731,114.418350 97.702438,117.888000 89.029526,115.054535 
	C85.574654,113.925812 82.490929,111.661079 78.671349,109.608932 
	C80.738678,107.278755 82.018860,105.835800 83.286171,104.407349 
	C92.020226,111.052155 97.866463,111.524902 102.187164,106.084740 
	C105.472115,101.948685 104.342674,97.618416 98.605637,93.322594 
z"/>
<path fill="#111111" opacity="1.000000" stroke="none" 
	d="
M128.881821,114.521851 
	C127.101906,114.601227 125.321991,114.680595 123.221603,114.774261 
	C123.221603,99.437355 123.221603,84.503479 123.221603,69.089752 
	C120.209274,69.089752 117.481003,69.089752 114.319893,69.089752 
	C114.184776,66.918999 114.077652,65.198006 113.946098,63.084431 
	C116.997055,63.084431 119.753914,63.084431 122.917389,63.084431 
	C122.917389,56.661968 122.917389,50.595158 122.917389,44.176739 
	C125.369202,44.176739 127.423721,44.176739 129.882843,44.176739 
	C129.882843,50.087784 129.882843,56.185909 129.882843,62.726906 
	C133.492203,62.726906 136.733337,62.726906 140.274719,62.726906 
	C140.274719,64.893379 140.274719,66.614563 140.274719,68.809616 
	C136.890549,68.809616 133.657837,68.809616 130.020508,68.809616 
	C130.020508,83.550247 130.020508,97.823357 129.701828,112.749825 
	C129.216034,113.776070 129.048920,114.148956 128.881821,114.521851 
z"/>
<path fill="#0F0F0F" opacity="1.000000" stroke="none" 
	d="
M28.051355,90.877792 
	C28.813250,92.048729 29.903893,93.122398 30.283754,94.406357 
	C32.771069,102.813683 37.984066,108.592369 46.784210,109.698792 
	C55.508343,110.795647 62.712914,107.386520 67.695114,99.874977 
	C68.059990,99.324867 68.443375,98.786118 68.840988,98.259323 
	C68.931656,98.139198 69.117188,98.090706 69.715134,97.747345 
	C71.138794,98.528458 72.806183,99.443298 74.452232,100.346428 
	C69.656517,111.544617 58.112030,117.722038 45.841274,115.848351 
	C32.825489,113.860909 24.318300,104.550087 23.370735,90.446365 
	C25.197725,90.342964 26.624540,90.610374 28.051355,90.877792 
z"/>
<path fill="#0E0E0E" opacity="1.000000" stroke="none" 
	d="
M32.007378,88.893448 
	C31.274033,88.965439 30.540688,89.037430 29.424999,88.787865 
	C29.690821,87.645630 30.338989,86.824951 31.243061,85.823212 
	C31.669987,85.053108 31.841003,84.464058 32.460365,83.728951 
	C44.891331,83.582893 56.873955,83.582893 69.067680,83.582893 
	C66.978569,75.915810 65.049873,73.533249 58.099350,68.888725 
	C59.536816,67.310448 60.662464,65.940605 61.788113,64.570763 
	C71.161224,68.867325 76.443535,77.738976 76.104538,89.109108 
	C73.704620,89.109108 71.282509,89.109108 68.374878,88.682007 
	C66.928246,88.475189 65.967133,88.695465 65.006027,88.915749 
	C54.642384,88.981232 44.278744,89.046715 33.442795,88.773331 
	C32.818256,88.176453 32.666023,87.918427 32.513786,87.660400 
	C32.344982,88.071419 32.176178,88.482430 32.007378,88.893448 
z"/>
<path fill="#FDF5F4" opacity="1.000000" stroke="none" 
	d="
M203.006714,45.005226 
	C203.670517,49.534840 204.810364,54.054344 204.906815,58.596004 
	C205.171478,71.057404 205.532822,83.561317 204.762329,95.980545 
	C204.400238,101.817070 206.812317,108.174492 202.395020,113.346786 
	C202.000946,90.407509 201.952271,67.748154 201.903610,45.088806 
	C202.085052,45.068363 202.266510,45.047916 202.723984,45.013737 
	C203.000000,45.000000 203.006714,45.005226 203.006714,45.005226 
z"/>
<path fill="#0F0F0F" opacity="1.000000" stroke="none" 
	d="
M30.987156,86.004272 
	C30.338989,86.824951 29.690821,87.645630 29.057720,88.834427 
	C29.084936,89.566383 28.922312,89.816658 28.056381,89.808456 
	C26.055664,89.109299 24.583479,88.555054 23.111294,88.000809 
	C24.829569,82.776413 26.547846,77.552017 28.607046,72.513351 
	C29.318258,73.267319 29.688549,73.835548 30.058840,74.403778 
	C30.300520,74.216599 30.542202,74.029411 30.783882,73.842232 
	C30.200186,73.180389 29.616488,72.518547 29.032787,71.856712 
	C32.117661,69.247566 35.202534,66.638428 38.745323,64.450363 
	C39.641968,66.486282 40.080696,68.101135 40.487534,69.658371 
	C40.455643,69.600746 40.380669,69.732452 40.094772,69.467407 
	C39.075806,69.317009 38.342735,69.431656 37.609665,69.546303 
	C37.800575,70.057091 37.991486,70.567879 38.010590,71.372421 
	C34.125652,74.882210 31.038584,78.448257 31.057446,84.135056 
	C31.021231,85.007187 31.004194,85.505730 30.987156,86.004272 
z"/>
<path fill="#C41E20" opacity="1.000000" stroke="none" 
	d="
M163.241348,72.928879 
	C163.160461,72.760193 163.079590,72.591499 162.840256,71.997559 
	C162.514404,71.259285 162.261642,71.157013 161.923538,71.265518 
	C161.923538,71.265518 161.890381,71.052979 161.840302,70.899338 
	C161.790222,70.745705 161.842804,70.377449 161.982544,70.028183 
	C163.167221,68.314186 164.212143,66.949471 165.569656,65.735168 
	C168.253540,68.260170 170.624847,70.634750 173.058105,73.333832 
	C174.099762,75.060539 175.079453,76.462730 176.047546,78.239983 
	C177.778473,80.371460 179.520996,82.127892 181.459076,83.877426 
	C181.654648,83.870529 181.991913,84.069099 182.024078,84.366257 
	C182.624863,85.115234 183.193497,85.567055 183.933777,86.332504 
	C184.542206,87.702713 184.978973,88.759300 185.009308,89.866264 
	C183.031967,90.304352 181.461029,90.692055 179.890106,91.079758 
	C179.890106,91.079750 179.983276,91.005028 179.976761,90.678680 
	C178.565308,88.968651 177.160355,87.584984 175.797348,86.168121 
	C175.839294,86.134933 175.852936,86.241043 175.790543,85.962715 
	C175.414917,85.493286 175.101669,85.302193 174.847137,85.100510 
	C174.905853,85.089920 174.886887,85.207710 174.817215,84.937927 
	C174.446655,84.469994 174.145782,84.271835 173.893555,84.069794 
	C173.942200,84.065918 173.885025,84.145035 173.922455,83.779739 
	C173.062958,82.606079 172.166031,81.797714 171.098923,80.703003 
	C169.608856,79.303757 168.288956,78.190865 166.969055,77.077972 
	C166.508041,76.428482 166.047028,75.778992 165.243805,74.734764 
	C164.348206,73.869644 163.794769,73.399261 163.241348,72.928879 
M179.414917,85.481865 
	C179.414917,85.481865 179.524872,85.416245 179.414917,85.481865 
z"/>
<path fill="#070707" opacity="1.000000" stroke="none" 
	d="
M40.519424,69.715988 
	C40.080696,68.101135 39.641968,66.486282 39.103329,64.441010 
	C46.396801,60.286835 53.776646,61.495045 61.470421,64.321083 
	C60.662464,65.940605 59.536816,67.310448 57.685661,68.871857 
	C51.479912,69.280952 45.999668,69.498474 40.519424,69.715988 
z"/>
<path fill="#FBEBE7" opacity="1.000000" stroke="none" 
	d="
M154.999832,112.993401 
	C155.564682,113.074158 156.129532,113.154915 156.694366,113.235664 
	C156.292587,114.640999 155.890808,116.046341 155.495926,117.427551 
	C152.277786,116.924309 148.223572,117.440094 146.502151,115.677528 
	C144.972244,114.111084 146.079254,110.015694 145.935638,107.040726 
	C145.339600,94.694077 144.555222,82.353477 144.199173,70.000313 
	C144.105820,66.761147 145.303894,63.484764 146.368210,60.558323 
	C146.902710,78.257378 146.977890,95.623573 147.013763,113.384567 
	C148.676422,114.014771 150.378387,114.250175 152.343414,114.583328 
	C153.093536,114.450447 153.580582,114.219818 154.274628,113.877304 
	C154.735565,113.562607 154.908310,113.305267 154.999832,112.993401 
z"/>
<path fill="#942728" opacity="1.000000" stroke="none" 
	d="
M201.925079,45.076286 
	C201.952271,67.748154 202.000946,90.407509 202.087601,113.533867 
	C201.104996,113.900696 200.084381,113.800507 199.030426,113.025452 
	C199.010300,111.579323 199.023529,110.808052 199.053162,109.806549 
	C199.069534,109.576317 199.112778,109.117737 199.449554,109.041885 
	C200.177750,107.981339 200.569168,106.996651 200.967590,105.755005 
	C200.961655,105.327164 200.948715,105.156281 200.943130,104.590546 
	C200.937958,103.145103 200.925446,102.094513 200.941971,100.573708 
	C200.951080,94.055763 200.931137,88.008034 200.925385,81.494408 
	C200.948318,70.023232 200.957062,59.017941 200.879807,47.788280 
	C200.616272,47.280972 200.369919,47.084187 200.035919,46.977417 
	C200.017105,46.981281 200.027847,46.944389 199.919617,46.729713 
	C199.607925,46.249115 199.343430,46.076981 198.676941,46.024284 
	C197.547974,47.022881 196.759933,47.995815 195.753906,48.966404 
	C195.535934,48.964058 195.099930,48.964645 195.099930,48.964645 
	C195.099930,48.964645 194.976532,49.127930 194.949356,48.695427 
	C195.012726,47.170418 195.103271,46.077908 195.193802,44.985401 
	C195.623184,44.663113 196.052567,44.340824 197.104156,43.985199 
	C199.126648,44.337402 200.526947,44.722939 201.927246,45.108475 
	C201.927246,45.108475 201.946533,45.063763 201.925079,45.076286 
z"/>
<path fill="#FEEFE9" opacity="1.000000" stroke="none" 
	d="
M185.415741,89.815887 
	C184.978973,88.759300 184.542206,87.702713 183.974670,86.091164 
	C183.662735,85.265129 183.486465,84.990906 183.484985,84.536530 
	C183.654877,84.359535 183.994598,84.005508 183.994598,84.005508 
	C185.713776,85.333221 187.301666,86.910309 189.195084,87.907051 
	C190.622314,88.658386 192.440811,88.666481 194.533096,89.430359 
	C195.004288,92.222656 195.027542,94.590004 194.876709,97.127251 
	C194.488602,97.539612 194.274002,97.781578 193.713821,97.921097 
	C192.651215,97.821457 191.933624,97.823761 191.133423,97.533798 
	C190.405197,96.513809 189.759598,95.786087 189.413818,94.911308 
	C189.177597,94.134346 188.641556,93.504448 187.990479,92.561127 
	C187.055542,91.437096 186.235641,90.626488 185.415741,89.815887 
z"/>
<path fill="#B12023" opacity="1.000000" stroke="none" 
	d="
M189.113998,95.058365 
	C189.759598,95.786087 190.405197,96.513809 190.901031,97.730057 
	C191.505630,100.142654 192.260010,102.066719 193.015854,104.304031 
	C193.058334,105.031456 193.099335,105.445641 193.061584,105.935898 
	C192.982819,106.011955 192.823578,106.162277 192.823578,106.162277 
	C189.670853,102.584198 186.518112,99.006126 183.047668,95.008766 
	C182.553299,94.286308 182.289810,94.145065 181.939468,94.165764 
	C181.939468,94.165764 181.960526,94.066811 181.884628,93.813942 
	C181.541702,93.369614 181.274658,93.178162 180.990234,92.986221 
	C180.972839,92.985733 180.949768,93.011734 180.949768,93.011734 
	C180.653198,92.546074 180.356613,92.080414 179.975067,91.347260 
	C181.461029,90.692055 183.031967,90.304352 185.009308,89.866264 
	C186.235641,90.626488 187.055542,91.437096 187.729919,92.739914 
	C187.115875,94.200424 186.647385,95.168724 185.847580,96.821770 
	C187.490814,95.934654 188.302414,95.496506 189.113998,95.058365 
z"/>
<path fill="#8F1A1B" opacity="1.000000" stroke="none" 
	d="
M154.067642,113.989189 
	C153.580582,114.219818 153.093536,114.450447 152.331360,114.409035 
	C152.056244,114.136993 151.957962,113.801819 151.971878,113.601204 
	C151.985794,113.400589 151.986649,112.994713 151.991028,112.987411 
	C151.995392,112.980110 151.991837,112.963005 152.208786,112.864090 
	C152.701340,112.570068 152.863800,112.305466 152.923126,111.504684 
	C152.931412,101.032425 152.929703,91.026855 152.954590,80.618881 
	C152.982651,79.144234 152.984116,78.071983 152.991821,76.572243 
	C152.667999,72.284500 152.213593,68.426430 152.146255,64.561607 
	C152.136520,64.002579 153.984329,63.411175 154.721436,62.954117 
	C154.387421,63.751476 154.304520,64.429474 154.145905,65.480415 
	C154.108261,66.863991 154.146332,67.874634 154.104004,69.065582 
	C153.963287,69.518196 154.007645,69.772224 154.081757,70.338264 
	C154.056122,71.115471 154.105438,71.562386 154.080536,72.461655 
	C154.071396,76.274193 154.136505,79.634384 154.201599,82.994568 
	C154.159439,92.678398 154.117279,102.362228 154.059937,112.756821 
	C154.052383,113.641449 154.060013,113.815323 154.067642,113.989189 
z"/>
<path fill="#FDFAE2" opacity="1.000000" stroke="none" 
	d="
M241.761459,42.735947 
	C235.269058,46.685345 228.525024,50.347153 221.447311,54.079346 
	C222.744797,51.951344 224.375961,49.752953 226.551102,46.821423 
	C226.446884,46.557396 225.895065,45.159283 224.879333,42.585846 
	C229.450317,45.864082 232.820999,45.124870 236.347900,42.609783 
	C237.513947,41.778267 239.758423,42.459038 241.761459,42.735947 
z"/>
<path fill="#FBEBE7" opacity="1.000000" stroke="none" 
	d="
M172.996124,73.009323 
	C170.624847,70.634750 168.253540,68.260170 165.613373,65.402130 
	C164.478699,63.950726 163.612915,62.982777 162.738480,61.724396 
	C162.171402,60.929508 161.612946,60.425049 161.030121,59.956329 
	C161.005753,59.992069 161.080551,59.948574 161.008652,59.655296 
	C160.343246,58.841305 159.749756,58.320595 159.147919,57.805866 
	C159.139603,57.811848 159.176636,57.795963 159.129059,57.536339 
	C158.966415,56.946701 158.851349,56.616680 158.736298,56.286659 
	C161.867676,58.633724 165.083832,60.877762 168.102707,63.361572 
	C170.377441,65.233131 172.399429,67.411880 174.467361,69.872749 
	C173.932587,71.197517 173.464355,72.103416 172.996124,73.009323 
z"/>
<path fill="#9F111A" opacity="1.000000" stroke="none" 
	d="
M147.053055,112.989769 
	C146.977890,95.623573 146.902710,78.257378 146.721313,60.431042 
	C146.691132,59.225906 146.767151,58.480911 147.167145,57.365120 
	C147.491119,56.994331 147.953049,56.988251 147.973206,57.433411 
	C148.001358,60.251736 148.009354,62.624901 148.012619,65.458710 
	C148.014801,69.610840 148.021729,73.302338 148.018433,77.395248 
	C148.012085,78.866394 148.015945,79.936134 148.014099,81.474121 
	C148.014084,92.288506 148.019775,102.634628 147.782410,112.988327 
	C147.539352,112.995903 147.053055,112.989769 147.053055,112.989769 
z"/>
<path fill="#FEEFE9" opacity="1.000000" stroke="none" 
	d="
M173.058105,73.333832 
	C173.464355,72.103416 173.932587,71.197517 174.685608,70.148544 
	C177.410110,73.085258 179.935516,76.102699 182.245056,79.277168 
	C183.103500,80.457108 183.456421,82.004845 184.017242,83.695183 
	C183.994598,84.005508 183.654877,84.359535 183.289154,84.356064 
	C182.612930,84.258087 182.302414,84.163589 181.991913,84.069099 
	C181.991913,84.069099 181.654648,83.870529 181.424835,83.517456 
	C179.483047,81.397888 177.771088,79.631409 176.059128,77.864929 
	C175.079453,76.462730 174.099762,75.060539 173.058105,73.333832 
z"/>
<path fill="#9F111D" opacity="1.000000" stroke="none" 
	d="
M195.050797,96.957352 
	C195.027542,94.590004 195.004288,92.222656 194.895996,89.418777 
	C194.854233,87.923370 194.897491,86.864479 194.956543,84.998444 
	C194.915924,82.787071 194.859512,81.382866 194.803101,79.978653 
	C194.848755,77.617958 194.894379,75.257263 194.955933,72.033173 
	C194.915558,69.439491 194.859268,67.709206 194.802963,65.978912 
	C194.860443,60.618332 194.917908,55.257751 195.037659,49.430908 
	C195.099930,48.964645 195.535934,48.964058 195.764755,49.438484 
	C195.991577,65.608917 195.989594,81.304924 195.753265,96.993088 
	C195.518906,96.985229 195.050797,96.957352 195.050797,96.957352 
z"/>
<path fill="#AA232D" opacity="1.000000" stroke="none" 
	d="
M147.953049,56.988251 
	C147.953049,56.988251 147.491119,56.994331 147.260193,57.000740 
	C147.029282,57.007153 146.816452,57.095451 146.808517,56.604469 
	C146.847229,52.407406 146.893875,48.701328 146.940506,44.995247 
	C147.381485,45.017727 147.822449,45.040203 148.658081,45.398514 
	C149.678268,46.322666 150.303818,46.910976 150.929352,47.499287 
	C150.929352,47.499287 151.086044,47.841511 151.334015,48.235149 
	C153.965942,51.171745 156.349930,53.714703 158.733902,56.257660 
	C158.733902,56.257660 158.759918,56.265057 158.748108,56.275860 
	C158.851349,56.616680 158.966415,56.946701 158.793457,57.581123 
	C157.340225,57.254253 156.175003,56.622971 154.728104,55.856735 
	C153.634903,54.808186 152.823364,53.894596 151.875946,52.670826 
	C150.763504,51.071144 149.786942,49.781639 147.953049,47.360065 
	C147.953049,51.678616 147.953049,54.333431 147.953049,56.988251 
z"/>
<path fill="#FDFAE2" opacity="1.000000" stroke="none" 
	d="
M210.790222,84.223679 
	C212.737564,88.705132 214.382858,93.440926 216.076355,98.543900 
	C209.900620,95.796898 210.380692,90.064705 210.790222,84.223679 
z"/>
<path fill="#FBEBE7" opacity="1.000000" stroke="none" 
	d="
M154.184418,68.885269 
	C154.146332,67.874634 154.108261,66.863991 154.620819,65.457672 
	C155.802795,65.032516 156.434113,65.003036 157.349213,65.080093 
	C158.075043,65.840530 158.517090,66.494431 158.981293,67.427147 
	C159.312149,68.141144 159.620850,68.576332 160.192505,69.150253 
	C160.917908,69.651810 161.380356,70.014633 161.842804,70.377449 
	C161.842804,70.377449 161.790222,70.745705 161.735458,70.923386 
	C159.295929,70.411697 157.009659,70.052879 155.249695,72.738770 
	C154.660965,72.324852 154.437988,72.132202 154.154755,72.009300 
	C154.105438,71.562386 154.056122,71.115471 154.339111,70.295181 
	C154.829056,69.741173 154.986694,69.560524 155.144348,69.379875 
	C154.824371,69.215004 154.504395,69.050133 154.184418,68.885269 
z"/>
<path fill="#FDFAE2" opacity="1.000000" stroke="none" 
	d="
M215.647034,61.037483 
	C214.504211,65.810722 212.996094,70.616623 211.259628,75.717606 
	C209.672882,71.945221 211.966034,63.883556 215.647034,61.037483 
z"/>
<path fill="#FBEBE7" opacity="1.000000" stroke="none" 
	d="
M158.812866,55.856575 
	C156.349930,53.714703 153.965942,51.171745 151.482193,48.351166 
	C156.470123,48.171608 158.290253,49.960831 158.812866,55.856575 
z"/>
<path fill="#FBFFF1" opacity="1.000000" stroke="none" 
	d="
M238.486084,122.074249 
	C236.168747,122.663933 233.948029,122.881821 231.333267,123.138382 
	C233.461151,119.265205 234.913589,119.103706 238.486084,122.074249 
z"/>
<path fill="#B12023" opacity="1.000000" stroke="none" 
	d="
M199.036774,110.036789 
	C199.023529,110.808052 199.010300,111.579323 198.980850,112.736343 
	C196.953018,111.034523 194.941406,108.946938 192.876694,106.510818 
	C192.823578,106.162277 192.982819,106.011955 193.367905,105.982147 
	C194.167465,105.961121 194.581940,105.969902 195.000458,105.987350 
	C195.004486,105.996017 195.022583,106.002312 195.156311,106.290909 
	C196.181534,107.054947 197.073013,107.530388 197.975128,108.253555 
	C197.985779,108.501289 198.002350,108.996941 198.114670,109.223137 
	C198.496918,109.645149 198.766830,109.840965 199.036774,110.036789 
z"/>
<path fill="#FBEBE7" opacity="1.000000" stroke="none" 
	d="
M146.558121,45.078339 
	C146.893875,48.701328 146.847229,52.407406 146.700653,56.563995 
	C146.459061,53.063477 146.317398,49.112453 146.558121,45.078339 
z"/>
<path fill="#FDF5F4" opacity="1.000000" stroke="none" 
	d="
M201.943054,44.717896 
	C200.526947,44.722939 199.126648,44.337402 197.358368,43.882408 
	C197.761444,42.899048 198.532486,41.985149 199.303513,41.071251 
	C200.188629,42.156605 201.073746,43.241962 201.943054,44.717896 
z"/>
<path fill="#FEEFE9" opacity="1.000000" stroke="none" 
	d="
M194.460800,80.030289 
	C194.859512,81.382866 194.915924,82.787071 194.887848,84.605850 
	C193.528259,84.460495 192.253159,83.900574 189.797485,82.822250 
	C191.895874,81.491486 193.007187,80.786705 194.460800,80.030289 
z"/>
<path fill="#F1C339" opacity="1.000000" stroke="none" 
	d="
M232.642426,112.056984 
	C231.364914,111.936646 230.055389,111.484749 228.395447,110.996338 
	C228.045044,110.959816 228.021912,110.984261 227.934906,110.745270 
	C227.624130,110.225769 227.332901,110.090530 226.974213,110.100555 
	C226.545258,109.744553 226.116302,109.388557 225.293762,108.754578 
	C224.602234,108.312668 224.304276,108.148750 224.006317,107.984833 
	C223.898453,107.613434 223.790588,107.242043 223.655670,106.583313 
	C225.202240,107.113388 226.775879,107.930801 228.647354,108.890648 
	C230.166916,109.930527 231.388672,110.827980 232.642426,112.056984 
z"/>
<path fill="#0E0E0E" opacity="1.000000" stroke="none" 
	d="
M23.033997,88.331024 
	C24.583479,88.555054 26.055664,89.109299 27.824753,89.859131 
	C28.121655,90.054718 28.034737,90.461830 28.043045,90.669815 
	C26.624540,90.610374 25.197725,90.342964 23.442551,90.037430 
	C23.061695,89.553284 23.009197,89.107269 23.033997,88.331024 
z"/>
<path fill="#FBEBE7" opacity="1.000000" stroke="none" 
	d="
M176.389206,87.816788 
	C173.692001,87.539536 171.002594,87.253624 171.932404,83.204147 
	C172.869461,83.372849 173.377243,83.758942 173.885025,84.145035 
	C173.885025,84.145035 173.942200,84.065918 173.965576,84.339554 
	C174.288254,84.811371 174.587570,85.009544 174.886887,85.207710 
	C174.886887,85.207710 174.905853,85.089920 174.936966,85.364075 
	C175.263031,85.839172 175.557983,86.040108 175.852936,86.241043 
	C175.852936,86.241043 175.839294,86.134933 175.877060,86.447937 
	C176.072952,87.112892 176.231079,87.464836 176.389206,87.816788 
z"/>
<path fill="#FBEBE7" opacity="1.000000" stroke="none" 
	d="
M162.885834,72.974960 
	C163.794769,73.399261 164.348206,73.869644 164.965744,74.612137 
	C164.022903,75.219795 163.015961,75.555344 162.009003,75.890892 
	C162.182785,74.934273 162.356552,73.977654 162.885834,72.974960 
z"/>
<path fill="#FEEFE9" opacity="1.000000" stroke="none" 
	d="
M194.456360,66.072899 
	C194.859268,67.709206 194.915558,69.439491 194.887405,71.595505 
	C191.776260,70.400818 192.698044,68.312851 194.456360,66.072899 
z"/>
<path fill="#FBEBE7" opacity="1.000000" stroke="none" 
	d="
M166.968201,77.459496 
	C168.288956,78.190865 169.608856,79.303757 171.066559,80.923180 
	C171.361847,81.681343 171.498169,81.943977 171.613327,82.217598 
	C168.573257,82.341957 167.034714,80.872345 166.968201,77.459496 
z"/>
<path fill="#FEE2DF" opacity="1.000000" stroke="none" 
	d="
M154.080536,72.461655 
	C154.437988,72.132202 154.660965,72.324852 154.913025,72.792412 
	C155.004181,74.063789 155.005997,75.130020 155.003143,76.931381 
	C155.001266,78.113708 155.004013,78.560883 155.006775,79.008064 
	C154.894547,80.164902 154.782333,81.321739 154.435867,82.736572 
	C154.136505,79.634384 154.071396,76.274193 154.080536,72.461655 
z"/>
<path fill="#B12023" opacity="1.000000" stroke="none" 
	d="
M176.645874,87.981949 
	C176.231079,87.464836 176.072952,87.112892 175.835114,86.481133 
	C177.160355,87.584984 178.565308,88.968651 179.947754,90.730858 
	C178.917679,90.121964 177.910110,89.134537 176.645874,87.981949 
z"/>
<path fill="#B12023" opacity="1.000000" stroke="none" 
	d="
M171.619644,82.343094 
	C171.498169,81.943977 171.361847,81.681343 171.236725,81.209526 
	C172.166031,81.797714 173.062958,82.606079 173.922455,83.779739 
	C173.377243,83.758942 172.869461,83.372849 172.102661,82.790466 
	C171.843658,82.594177 171.625961,82.468597 171.619644,82.343094 
z"/>
<path fill="#FDFAE2" opacity="1.000000" stroke="none" 
	d="
M216.003113,106.412094 
	C216.664581,107.074379 217.004639,107.785141 217.344696,108.495903 
	C216.907043,108.579025 216.469406,108.662148 216.031769,108.745270 
	C215.915070,107.983704 215.798386,107.222137 216.003113,106.412094 
z"/>
<path fill="#F1C339" opacity="1.000000" stroke="none" 
	d="
M217.944168,100.356216 
	C218.933655,101.147972 219.945602,102.244713 220.968109,103.697296 
	C220.808716,104.055305 220.638763,104.057480 220.169373,103.773636 
	C219.600143,103.273430 219.330353,103.059250 219.060577,102.845070 
	C218.695938,102.117111 218.331284,101.389160 217.944168,100.356216 
z"/>
<path fill="#FBEBE7" opacity="1.000000" stroke="none" 
	d="
M151.189178,47.215508 
	C150.303818,46.910976 149.678268,46.322666 148.985779,45.474205 
	C149.535629,44.995213 150.152435,44.776360 150.769257,44.557510 
	C150.995834,45.348915 151.222412,46.140324 151.189178,47.215508 
z"/>
<path fill="#FDF5F4" opacity="1.000000" stroke="none" 
	d="
M208.505295,48.331532 
	C207.963333,47.987968 207.638443,47.430031 207.313538,46.872097 
	C207.591476,46.745026 207.869415,46.617950 208.147369,46.490875 
	C208.339020,47.032967 208.530685,47.575058 208.505295,48.331532 
z"/>
<path fill="#FEEFE9" opacity="1.000000" stroke="none" 
	d="
M194.901093,45.130692 
	C195.103271,46.077908 195.012726,47.170418 194.850616,48.668518 
	C194.722183,47.808071 194.665283,46.542030 194.901093,45.130692 
z"/>
<path fill="#010101" opacity="1.000000" stroke="none" 
	d="
M65.375038,88.997192 
	C65.967133,88.695465 66.928246,88.475189 67.941216,88.579483 
	C67.243401,88.962242 66.493729,89.020439 65.375038,88.997192 
z"/>
<path fill="#101010" opacity="1.000000" stroke="none" 
	d="
M29.050327,71.884789 
	C29.616488,72.518547 30.200186,73.180389 30.783882,73.842232 
	C30.542202,74.029411 30.300520,74.216599 30.058840,74.403778 
	C29.688549,73.835548 29.318258,73.267319 28.945766,72.317612 
	C28.943565,71.936127 29.067865,71.912865 29.050327,71.884789 
z"/>
<path fill="#FDFAE2" opacity="1.000000" stroke="none" 
	d="
M220.400909,111.954727 
	C220.792496,111.716110 221.182327,111.718056 221.569916,111.748329 
	C221.580994,111.749199 221.568558,112.051147 221.567078,112.212708 
	C221.177658,112.208237 220.788223,112.203773 220.400909,111.954727 
z"/>
<path fill="#FBEBE7" opacity="1.000000" stroke="none" 
	d="
M155.302216,78.964249 
	C155.004013,78.560883 155.001266,78.113708 155.002655,77.331161 
	C155.519363,77.231918 156.031891,77.468040 156.544434,77.704163 
	C156.228836,78.109596 155.913239,78.515015 155.302216,78.964249 
z"/>
<path fill="#FDFAE2" opacity="1.000000" stroke="none" 
	d="
M220.784714,54.114983 
	C220.685974,54.782707 220.222092,55.455231 219.463104,56.248436 
	C219.585190,55.619339 220.002396,54.869564 220.784714,54.114983 
z"/>
<path fill="#F1C339" opacity="1.000000" stroke="none" 
	d="
M222.064575,105.300102 
	C222.519943,105.250740 223.086578,105.482140 223.691986,106.039032 
	C223.212479,106.103302 222.694153,105.842087 222.064575,105.300102 
z"/>
<path fill="#F1C339" opacity="1.000000" stroke="none" 
	d="
M217.023300,98.860092 
	C217.350281,99.109375 217.677261,99.358665 217.974854,99.843597 
	C217.768753,100.088837 217.592026,100.098419 217.190948,99.776321 
	C216.985474,99.249794 217.004395,99.054939 217.023300,98.860092 
z"/>
<path fill="#010101" opacity="1.000000" stroke="none" 
	d="
M32.251911,88.980194 
	C32.176178,88.482430 32.344982,88.071419 32.513786,87.660400 
	C32.666023,87.918427 32.818256,88.176453 32.982399,88.677513 
	C32.828354,88.969345 32.662399,89.018143 32.251911,88.980194 
z"/>
<path fill="#FBEBE7" opacity="1.000000" stroke="none" 
	d="
M180.982910,94.021820 
	C180.552246,93.854126 180.121597,93.686424 179.690933,93.518723 
	C179.944931,93.352478 180.198944,93.186241 180.701355,93.015869 
	C180.949768,93.011734 180.972839,92.985733 180.983475,93.244995 
	C180.990372,93.676781 180.986649,93.849297 180.982910,94.021820 
z"/>
<path fill="#010101" opacity="1.000000" stroke="none" 
	d="
M129.244446,114.468124 
	C129.048920,114.148956 129.216034,113.776070 129.624817,113.214523 
	C129.780014,113.488701 129.693542,113.951553 129.244446,114.468124 
z"/>
<path fill="#FDFAE2" opacity="1.000000" stroke="none" 
	d="
M227.087814,110.312988 
	C227.332901,110.090530 227.624130,110.225769 227.941528,110.736107 
	C227.695084,110.936714 227.417175,110.789879 227.087814,110.312988 
z"/>
<path fill="#FDFAE2" opacity="1.000000" stroke="none" 
	d="
M217.704559,58.096127 
	C217.795929,58.288155 217.662231,58.594803 217.285294,58.998131 
	C217.187866,58.800125 217.333679,58.505436 217.704559,58.096127 
z"/>
<path fill="#FEE2DF" opacity="1.000000" stroke="none" 
	d="
M161.982071,71.436249 
	C162.261642,71.157013 162.514404,71.259285 162.649551,71.791695 
	C162.363739,71.963875 162.171509,71.829178 161.982071,71.436249 
z"/>
<path fill="#FEE2DF" opacity="1.000000" stroke="none" 
	d="
M154.274628,113.877304 
	C154.060013,113.815323 154.052383,113.641449 154.125946,113.219437 
	C154.207153,112.971291 154.603790,112.971672 154.801819,112.982536 
	C154.908310,113.305267 154.735565,113.562607 154.274628,113.877304 
z"/>
<path fill="#FDF5F4" opacity="1.000000" stroke="none" 
	d="
M202.997345,44.996613 
	C203.090118,44.959915 203.185532,44.926598 203.143829,44.949253 
	C203.006714,45.005226 203.000000,45.000000 202.997345,44.996613 
z"/>
<path fill="#FDFAE2" opacity="1.000000" stroke="none" 
	d="
M248.899368,42.653046 
	C248.829361,42.848122 248.665207,42.900063 248.252808,42.880848 
	C248.271439,42.709766 248.538345,42.609840 248.899368,42.653046 
z"/>
<path fill="#FDFAE2" opacity="1.000000" stroke="none" 
	d="
M216.785782,98.830566 
	C217.004395,99.054939 216.985474,99.249794 216.928589,99.735870 
	C216.647858,99.804848 216.405121,99.582588 216.117889,99.110825 
	C216.073395,98.861328 216.548264,98.801041 216.785782,98.830566 
z"/>
<path fill="#FDFAE2" opacity="1.000000" stroke="none" 
	d="
M224.110565,108.225555 
	C224.304276,108.148750 224.602234,108.312668 225.006424,108.717438 
	C224.813370,108.794281 224.514084,108.630280 224.110565,108.225555 
z"/>
<path fill="#FEE2DF" opacity="1.000000" stroke="none" 
	d="
M181.201736,94.038925 
	C180.986649,93.849297 180.990372,93.676781 181.000870,93.245483 
	C181.274658,93.178162 181.541702,93.369614 181.834045,93.814590 
	C181.859375,94.068100 181.420563,94.056030 181.201736,94.038925 
z"/>
<path fill="#FEE2DF" opacity="1.000000" stroke="none" 
	d="
M182.008240,94.370972 
	C182.289810,94.145065 182.553299,94.286308 182.751648,94.822968 
	C182.471756,94.997055 182.239655,94.836967 182.008240,94.370972 
z"/>
<path fill="#FDFAE2" opacity="1.000000" stroke="none" 
	d="
M219.119186,103.100174 
	C219.330353,103.059250 219.600143,103.273430 219.915665,103.748428 
	C219.700211,103.791267 219.438995,103.573273 219.119186,103.100174 
z"/>
<path fill="#F4C42E" opacity="1.000000" stroke="none" 
	d="
M256.677002,109.176666 
	C256.103485,113.179413 252.873871,112.060776 250.510025,111.846634 
	C248.114014,111.629593 245.805923,110.441780 243.228333,109.407066 
	C244.704742,109.120239 246.412140,109.105499 248.802307,109.301025 
	C250.995285,109.341087 252.505493,109.170891 254.015717,109.000694 
	C254.779404,109.027809 255.543106,109.054924 256.677002,109.176666 
z"/>
<path fill="#FEF5C0" opacity="1.000000" stroke="none" 
	d="
M223.431824,65.023720 
	C225.169159,62.438549 227.284409,59.845299 229.734741,57.200142 
	C227.983124,59.770702 225.896454,62.393173 223.431824,65.023720 
z"/>
<path fill="#FEF5C0" opacity="1.000000" stroke="none" 
	d="
M219.211670,70.946709 
	C219.211670,70.946709 219.331757,70.711273 219.504669,70.405762 
	C219.826569,69.728630 219.975555,69.357010 220.124542,68.985382 
	C220.385040,68.500496 220.645554,68.015602 221.197632,67.249741 
	C221.489197,66.968773 221.984161,66.994759 221.984161,66.994759 
	C224.178696,70.118683 222.248749,72.064690 219.588562,73.618858 
	C219.184647,72.526474 219.198151,71.736595 219.211670,70.946709 
z"/>
<path fill="#FEF5C0" opacity="1.000000" stroke="none" 
	d="
M220.925980,88.772865 
	C220.866379,89.208572 220.413101,89.137299 220.184128,88.764435 
	C219.666489,87.873222 219.377808,87.354874 219.089142,86.836525 
	C219.021561,86.109055 218.953995,85.381577 218.880493,83.861076 
	C218.993973,80.685562 219.113388,78.303070 219.232788,75.920586 
	C219.817062,80.059441 220.401321,84.198303 220.925980,88.772865 
z"/>
<path fill="#FEF5C0" opacity="1.000000" stroke="none" 
	d="
M222.015717,91.993179 
	C227.014404,90.358826 224.069778,94.680260 225.032074,96.525040 
	C225.005096,96.997955 224.844162,97.177711 224.635651,97.123779 
	C224.427155,97.069855 223.997284,97.043076 223.997284,97.043076 
	C223.997284,97.043076 224.004883,96.994179 223.875839,96.677109 
	C223.169769,94.904411 222.592743,93.448799 222.015717,91.993179 
z"/>
<path fill="#F4C42E" opacity="1.000000" stroke="none" 
	d="
M219.203735,75.612846 
	C219.113388,78.303070 218.993973,80.685562 218.798172,83.504669 
	C218.660675,79.787758 218.599579,75.634224 218.875076,71.213699 
	C219.198151,71.736595 219.184647,72.526474 219.258987,73.700310 
	C219.289459,74.491211 219.232071,74.898155 219.203735,75.612846 
z"/>
<path fill="#FEF5C0" opacity="1.000000" stroke="none" 
	d="
M233.980286,104.622612 
	C233.604828,104.969315 233.195969,104.971870 232.325714,104.682648 
	C231.343292,104.162338 230.822266,103.933800 230.301224,103.705269 
	C230.301224,103.705269 230.270782,103.733063 230.192261,103.491577 
	C229.829910,103.091667 229.546097,102.933243 229.262283,102.774811 
	C229.262283,102.774811 229.200424,102.720795 229.207901,102.453865 
	C229.077408,101.849258 228.939438,101.511574 228.908356,101.079193 
	C229.015244,100.984489 229.230743,100.797035 229.230743,100.797028 
	C230.802780,101.957504 232.374817,103.117989 233.980286,104.622612 
z"/>
<path fill="#FEF5C0" opacity="1.000000" stroke="none" 
	d="
M236.022141,106.908348 
	C235.640289,106.509987 235.258438,106.111633 234.794998,105.448395 
	C236.771515,105.879730 238.829636,106.575943 240.577911,107.623047 
	C238.852783,107.618736 237.437454,107.263542 236.022141,106.908348 
z"/>
<path fill="#FEF5C0" opacity="1.000000" stroke="none" 
	d="
M226.963440,100.222931 
	C226.963440,100.222931 226.720581,99.975044 226.439697,99.622269 
	C225.720581,98.572235 225.282379,97.874969 224.844162,97.177711 
	C224.844162,97.177711 225.005096,96.997955 225.086487,96.906784 
	C226.466110,97.913513 227.764328,99.011398 229.146637,100.453163 
	C229.230743,100.797035 229.015244,100.984489 228.673950,100.962585 
	C227.876251,100.701439 227.419846,100.462181 226.963440,100.222931 
z"/>
<path fill="#F4C42E" opacity="1.000000" stroke="none" 
	d="
M236.057449,107.257439 
	C237.437454,107.263542 238.852783,107.618736 240.634918,107.982834 
	C241.001724,107.991737 241.119034,108.379784 241.114365,108.582382 
	C239.437378,108.392166 237.765076,107.999352 236.057449,107.257439 
z"/>
<path fill="#FEF5C0" opacity="1.000000" stroke="none" 
	d="
M253.778015,108.737389 
	C252.505493,109.170891 250.995285,109.341087 249.230698,109.285233 
	C250.497665,108.864143 252.018997,108.669113 253.778015,108.737389 
z"/>
<path fill="#F4C42E" opacity="1.000000" stroke="none" 
	d="
M221.805267,91.895233 
	C222.592743,93.448799 223.169769,94.904411 223.851440,96.681190 
	C222.988068,95.481392 222.020065,93.960434 221.102295,92.047852 
	C221.152527,91.656219 221.594833,91.797279 221.805267,91.895233 
z"/>
<path fill="#F4C42E" opacity="1.000000" stroke="none" 
	d="
M222.023468,66.677139 
	C221.984161,66.994759 221.489197,66.968773 221.241486,66.976852 
	C221.229568,66.418716 221.465378,65.852509 222.010345,65.195984 
	C222.233917,65.523613 222.148346,65.941559 222.023468,66.677139 
z"/>
<path fill="#FEF5C0" opacity="1.000000" stroke="none" 
	d="
M230.968323,56.776386 
	C230.909485,56.516846 231.145828,56.242062 231.653885,55.909882 
	C231.704895,56.155376 231.484192,56.458260 230.968323,56.776386 
z"/>
<path fill="#FEF5C0" opacity="1.000000" stroke="none" 
	d="
M233.231110,54.990147 
	C233.044693,54.649174 233.230652,54.413368 233.811935,54.358192 
	C233.923218,54.682625 233.721954,54.868122 233.231110,54.990147 
z"/>
<path fill="#F4C42E" opacity="1.000000" stroke="none" 
	d="
M224.635651,97.123779 
	C225.282379,97.874969 225.720581,98.572235 226.278809,99.557312 
	C225.619232,99.135872 224.839630,98.426628 224.028656,97.380226 
	C223.997284,97.043076 224.427155,97.069855 224.635651,97.123779 
z"/>
<path fill="#F4C42E" opacity="1.000000" stroke="none" 
	d="
M227.007385,100.532227 
	C227.419846,100.462181 227.876251,100.701439 228.567047,101.057297 
	C228.939438,101.511574 229.077408,101.849258 229.248917,102.455795 
	C228.538742,102.096939 227.795029,101.469231 227.007385,100.532227 
z"/>
<path fill="#F4C42E" opacity="1.000000" stroke="none" 
	d="
M230.295547,103.990341 
	C230.822266,103.933800 231.343292,104.162338 232.017395,104.643837 
	C231.984421,104.938080 231.798386,104.979347 231.329453,105.059280 
	C230.794327,104.823769 230.542099,104.549591 230.295547,103.990341 
z"/>
<path fill="#F4C42E" opacity="1.000000" stroke="none" 
	d="
M219.067093,87.153687 
	C219.377808,87.354874 219.666489,87.873222 219.964676,88.697525 
	C219.664474,88.492607 219.354752,87.981728 219.067093,87.153687 
z"/>
<path fill="#F4C42E" opacity="1.000000" stroke="none" 
	d="
M219.851212,69.145981 
	C219.975555,69.357010 219.826569,69.728630 219.436996,70.292252 
	C219.323563,70.091698 219.450729,69.699135 219.851212,69.145981 
z"/>
<path fill="#F4C42E" opacity="1.000000" stroke="none" 
	d="
M229.291412,103.040871 
	C229.546097,102.933243 229.829910,103.091667 230.171997,103.495399 
	C229.927032,103.596115 229.623779,103.451523 229.291412,103.040871 
z"/>
<path fill="#0A0A0A" opacity="1.000000" stroke="none" 
	d="
M5.390305,49.464897 
	C4.941867,49.349129 4.666924,49.066620 4.413249,48.766148 
	C4.406730,48.758427 4.633284,48.553928 4.751140,48.441196 
	C5.022958,48.726059 5.294776,49.010925 5.390305,49.464897 
z"/>
<path fill="#F1F1F1" opacity="1.000000" stroke="none" 
	d="
M40.487534,69.658371 
	C45.999668,69.498474 51.479912,69.280952 57.373844,69.080292 
	C65.049873,73.533249 66.978569,75.915810 69.067680,83.582893 
	C56.873955,83.582893 44.891331,83.582893 32.235233,83.628731 
	C31.561762,83.674568 31.076624,83.761467 31.076624,83.761467 
	C31.038584,78.448257 34.125652,74.882210 38.277779,71.268173 
	C39.271404,70.490936 39.826038,70.111694 40.380669,69.732452 
	C40.380669,69.732452 40.455643,69.600746 40.487534,69.658371 
z"/>
<path fill="#000000" opacity="1.000000" stroke="none" 
	d="
M31.057446,84.135056 
	C31.076624,83.761467 31.561762,83.674568 31.786892,83.774788 
	C31.841003,84.464058 31.669987,85.053108 31.243063,85.823212 
	C31.004194,85.505730 31.021231,85.007187 31.057446,84.135056 
z"/>
<path fill="#070707" opacity="1.000000" stroke="none" 
	d="
M40.094772,69.467407 
	C39.826038,70.111694 39.271404,70.490936 38.449581,70.974426 
	C37.991486,70.567879 37.800575,70.057091 37.609665,69.546303 
	C38.342735,69.431656 39.075806,69.317009 40.094772,69.467407 
z"/>
<path fill="#C5181B" opacity="1.000000" stroke="none" 
	d="
M158.959152,67.148346 
	C158.517090,66.494431 158.075043,65.840530 157.242279,64.790245 
	C156.225220,63.874161 155.598892,63.354458 154.972549,62.834755 
	C153.984329,63.411175 152.136520,64.002579 152.146255,64.561607 
	C152.213593,68.426430 152.667999,72.284500 152.578613,76.572113 
	C150.782318,76.997597 149.405487,76.995712 148.028641,76.993828 
	C148.021729,73.302338 148.014801,69.610840 148.340454,65.408432 
	C148.782608,63.262005 148.892227,61.626495 149.349258,60.027145 
	C153.905762,61.887527 154.281387,58.709461 155.009766,55.991688 
	C156.175003,56.622971 157.340225,57.254253 158.841049,57.840748 
	C159.176636,57.795963 159.139603,57.811848 159.127762,58.153286 
	C159.770798,58.979340 160.425674,59.463959 161.080551,59.948574 
	C161.080551,59.948574 161.005753,59.992069 161.023804,60.268219 
	C161.610291,61.034519 162.178696,61.524677 162.747116,62.014832 
	C163.612915,62.982777 164.478699,63.950726 165.300781,65.251709 
	C164.212143,66.949471 163.167221,68.314186 161.982544,70.028183 
	C161.380356,70.014633 160.917908,69.651810 160.162140,68.852150 
	C159.565598,67.992989 159.262375,67.570663 158.959152,67.148346 
z"/>
<path fill="#B12023" opacity="1.000000" stroke="none" 
	d="
M176.047546,78.239983 
	C177.771088,79.631409 179.483047,81.397888 181.229248,83.524353 
	C179.520996,82.127892 177.778473,80.371460 176.047546,78.239983 
z"/>
<path fill="#B12023" opacity="1.000000" stroke="none" 
	d="
M182.024078,84.366257 
	C182.302414,84.163589 182.612930,84.258087 183.119263,84.533051 
	C183.486465,84.990906 183.662735,85.265129 183.803009,85.777542 
	C183.193497,85.567055 182.624863,85.115234 182.024078,84.366257 
z"/>
<path fill="#B12023" opacity="1.000000" stroke="none" 
	d="
M174.817215,84.937927 
	C174.587570,85.009544 174.288254,84.811371 173.916916,84.343437 
	C174.145782,84.271835 174.446655,84.469994 174.817215,84.937927 
z"/>
<path fill="#B12023" opacity="1.000000" stroke="none" 
	d="
M175.790543,85.962715 
	C175.557983,86.040108 175.263031,85.839172 174.878265,85.374664 
	C175.101669,85.302193 175.414917,85.493286 175.790543,85.962715 
z"/>
<path fill="#B12023" opacity="1.000000" stroke="none" 
	d="
M179.469894,85.449051 
	C179.524872,85.416245 179.414917,85.481865 179.469894,85.449051 
z"/>
<path fill="#B32A28" opacity="1.000000" stroke="none" 
	d="
M147.013763,113.384567 
	C147.053055,112.989769 147.539352,112.995903 147.770844,112.996399 
	C148.002350,112.996887 148.005203,112.977631 148.233795,113.246216 
	C149.627563,113.610474 150.792770,113.706146 151.957962,113.801819 
	C151.957962,113.801819 152.056244,114.136993 152.068298,114.311287 
	C150.378387,114.250175 148.676422,114.014771 147.013763,113.384567 
z"/>
<path fill="#CB1317" opacity="1.000000" stroke="none" 
	d="
M195.987610,97.000938 
	C195.989594,81.304924 195.991577,65.608917 195.982727,49.440826 
	C196.759933,47.995815 197.547974,47.022881 198.782669,46.241142 
	C199.431580,46.702694 199.697739,46.873379 200.027847,46.944389 
	C200.027847,46.944389 200.017105,46.981281 200.122223,47.201347 
	C200.407043,47.701473 200.653214,47.898548 200.965820,48.012650 
	C200.957062,59.017941 200.948318,70.023232 200.542999,81.605652 
	C199.767792,85.845459 199.265991,89.501137 199.057205,93.173470 
	C198.934265,95.335800 198.956375,97.272026 195.987610,97.000938 
z"/>
<path fill="#B71E1F" opacity="1.000000" stroke="none" 
	d="
M195.753265,96.993088 
	C198.956375,97.272026 198.934265,95.335800 199.057205,93.173470 
	C199.265991,89.501137 199.767792,85.845459 200.528824,82.071541 
	C200.931137,88.008034 200.951080,94.055763 200.581192,100.561951 
	C198.682983,101.467804 197.174606,101.915199 195.174942,102.508324 
	C194.813553,101.056015 194.436203,99.539520 194.058853,98.023033 
	C194.274002,97.781578 194.488602,97.539612 194.876709,97.127251 
	C195.050797,96.957352 195.518906,96.985229 195.753265,96.993088 
z"/>
<path fill="#CB1619" opacity="1.000000" stroke="none" 
	d="
M193.713821,97.921097 
	C194.436203,99.539520 194.813553,101.056015 195.174942,102.508324 
	C197.174606,101.915199 198.682983,101.467804 200.552155,101.032158 
	C200.925446,102.094513 200.937958,103.145103 200.786713,104.688255 
	C200.735504,105.457863 200.848053,105.734917 200.960587,106.011971 
	C200.569168,106.996651 200.177750,107.981339 199.172516,108.999420 
	C198.373260,109.020859 198.187805,109.008896 198.002350,108.996941 
	C198.002350,108.996941 197.985779,108.501289 198.169281,108.054688 
	C197.242706,107.072830 196.132645,106.537575 195.022583,106.002312 
	C195.022583,106.002312 195.004486,105.996017 194.959106,105.670631 
	C194.280624,104.893761 193.647507,104.442276 193.014389,103.990791 
	C192.260010,102.066719 191.505630,100.142654 190.983643,98.022324 
	C191.933624,97.823761 192.651215,97.821457 193.713821,97.921097 
z"/>
<path fill="#B71E1F" opacity="1.000000" stroke="none" 
	d="
M199.919617,46.729713 
	C199.697739,46.873379 199.431580,46.702694 199.123627,46.215485 
	C199.343430,46.076981 199.607925,46.249115 199.919617,46.729713 
z"/>
<path fill="#B71E1F" opacity="1.000000" stroke="none" 
	d="
M200.879807,47.788280 
	C200.653214,47.898548 200.407043,47.701473 200.141037,47.197487 
	C200.369919,47.084187 200.616272,47.280972 200.879807,47.788280 
z"/>
<path fill="#B71E1F" opacity="1.000000" stroke="none" 
	d="
M198.114670,109.223137 
	C198.187805,109.008896 198.373260,109.020859 198.835739,109.075272 
	C199.112778,109.117737 199.069534,109.576317 199.053146,109.806549 
	C198.766830,109.840965 198.496918,109.645149 198.114670,109.223137 
z"/>
<path fill="#B71E1F" opacity="1.000000" stroke="none" 
	d="
M200.967590,105.755005 
	C200.848053,105.734917 200.735504,105.457863 200.779388,105.083099 
	C200.948715,105.156281 200.961655,105.327164 200.967590,105.755005 
z"/>
<path fill="#DB0F1E" opacity="1.000000" stroke="none" 
	d="
M189.413818,94.911301 
	C188.302414,95.496506 187.490814,95.934654 185.847580,96.821770 
	C186.647385,95.168724 187.115875,94.200424 187.844955,93.053345 
	C188.641556,93.504448 189.177597,94.134346 189.413818,94.911301 
z"/>
<path fill="#B71E1F" opacity="1.000000" stroke="none" 
	d="
M193.015854,104.304031 
	C193.647507,104.442276 194.280624,104.893761 194.955078,105.661964 
	C194.581940,105.969902 194.167465,105.961121 193.446671,105.906090 
	C193.099335,105.445641 193.058334,105.031456 193.015854,104.304031 
z"/>
<path fill="#CA1316" opacity="1.000000" stroke="none" 
	d="
M148.013916,112.988815 
	C148.019775,102.634628 148.014084,92.288506 148.424469,81.471634 
	C150.203033,81.007690 151.565506,81.014488 152.927994,81.021286 
	C152.929703,91.026855 152.931412,101.032425 152.722687,111.621216 
	C152.262817,112.405174 152.089340,112.658028 151.991837,112.963005 
	C151.991837,112.963005 151.995392,112.980110 151.593292,112.987671 
	C150.129181,112.989365 149.067200,112.983498 148.005203,112.977631 
	C148.005203,112.977631 148.002350,112.996887 148.013916,112.988815 
z"/>
<path fill="#BD1913" opacity="1.000000" stroke="none" 
	d="
M152.954590,80.618881 
	C151.565506,81.014488 150.203033,81.007690 148.430176,81.003372 
	C148.015945,79.936134 148.012085,78.866394 148.018433,77.395248 
	C149.405487,76.995712 150.782318,76.997597 152.572372,76.999611 
	C152.984116,78.071983 152.982651,79.144234 152.954590,80.618881 
z"/>
<path fill="#FEE2DF" opacity="1.000000" stroke="none" 
	d="
M154.721436,62.954117 
	C155.598892,63.354458 156.225220,63.874161 156.958496,64.683716 
	C156.434113,65.003036 155.802795,65.032516 154.696548,65.084732 
	C154.304520,64.429474 154.387421,63.751476 154.721436,62.954117 
z"/>
<path fill="#9F111A" opacity="1.000000" stroke="none" 
	d="
M148.233795,113.246216 
	C149.067200,112.983498 150.129181,112.989365 151.588913,112.994972 
	C151.986649,112.994713 151.985794,113.400589 151.971878,113.601204 
	C150.792770,113.706146 149.627563,113.610474 148.233795,113.246216 
z"/>
<path fill="#FEE2DF" opacity="1.000000" stroke="none" 
	d="
M154.104019,69.065582 
	C154.504395,69.050133 154.824371,69.215004 155.144348,69.379875 
	C154.986694,69.560524 154.829056,69.741173 154.414047,69.964890 
	C154.007645,69.772224 153.963287,69.518196 154.104019,69.065582 
z"/>
<path fill="#B32A28" opacity="1.000000" stroke="none" 
	d="
M152.208786,112.864090 
	C152.089340,112.658028 152.262817,112.405174 152.712677,112.087906 
	C152.863800,112.305466 152.701340,112.570068 152.208786,112.864090 
z"/>
<path fill="#AA232D" opacity="1.000000" stroke="none" 
	d="
M161.008652,59.655296 
	C160.425674,59.463959 159.770798,58.979340 159.136078,58.147305 
	C159.749756,58.320595 160.343246,58.841305 161.008652,59.655296 
z"/>
<path fill="#AA232D" opacity="1.000000" stroke="none" 
	d="
M162.738480,61.724396 
	C162.178696,61.524677 161.610291,61.034519 161.048187,60.232475 
	C161.612946,60.425049 162.171402,60.929508 162.738480,61.724396 
z"/>
<path fill="#CF1121" opacity="1.000000" stroke="none" 
	d="
M149.001831,59.990986 
	C148.892227,61.626495 148.782608,63.262005 148.345184,64.947784 
	C148.009354,62.624901 148.001358,60.251736 147.973206,57.433411 
	C147.953049,54.333431 147.953049,51.678616 147.953049,47.360065 
	C149.786942,49.781639 150.763504,51.071144 151.540283,52.678558 
	C150.893173,52.998333 150.445816,53.000195 149.944946,52.864052 
	C149.806503,52.676769 149.721558,52.627491 149.636612,52.578209 
	C149.758408,52.718262 149.880203,52.858315 149.999451,53.397156 
	C149.665222,55.860958 149.333527,57.925972 149.001831,59.990986 
z"/>
<path fill="#CC120A" opacity="1.000000" stroke="none" 
	d="
M149.349258,60.027145 
	C149.333527,57.925972 149.665222,55.860958 149.998459,53.397972 
	C150.000000,53.000000 149.998459,53.002052 149.998459,53.002052 
	C150.445816,53.000195 150.893173,52.998333 151.676178,52.988739 
	C152.823364,53.894596 153.634903,54.808186 154.728104,55.856735 
	C154.281387,58.709461 153.905762,61.887527 149.349258,60.027145 
z"/>
<path fill="#FEE2DF" opacity="1.000000" stroke="none" 
	d="
M158.981293,67.427155 
	C159.262375,67.570663 159.565598,67.992989 159.899200,68.713409 
	C159.620850,68.576332 159.312149,68.141144 158.981293,67.427155 
z"/>
<path fill="#B71E1F" opacity="1.000000" stroke="none" 
	d="
M195.156311,106.290909 
	C196.132645,106.537575 197.242706,107.072830 198.158630,107.806961 
	C197.073013,107.530388 196.181534,107.054947 195.156311,106.290909 
z"/>
<path fill="#CC120A" opacity="1.000000" stroke="none" 
	d="
M150.001007,52.999184 
	C149.880203,52.858315 149.758408,52.718262 149.636612,52.578209 
	C149.721558,52.627491 149.806503,52.676769 149.944946,52.864052 
	C149.998459,53.002052 150.000000,53.000000 150.001007,52.999184 
z"/>
</svg>